<svg xmlns="http://www.w3.org/2000/svg" xmlns:xlink="http://www.w3.org/1999/xlink" width="100" zoomAndPan="magnify" viewBox="0 0 75 74.999997" height="100" preserveAspectRatio="xMidYMid meet"><defs><clipPath id="ea9ae94b02"><path d="M 14.644531 2.871094 L 60.394531 2.871094 L 60.394531 71.871094 L 14.644531 71.871094 Z M 14.644531 2.871094 " clip-rule="nonzero"></path></clipPath><clipPath id="bf801a9f03"><path d="M 14.644531 43 L 60.394531 43 L 60.394531 71.871094 L 14.644531 71.871094 Z M 14.644531 43 " clip-rule="nonzero"></path></clipPath><clipPath id="1c847e86bc"><path d="M 14.644531 3 L 60.394531 3 L 60.394531 66 L 14.644531 66 Z M 14.644531 3 " clip-rule="nonzero"></path></clipPath></defs><rect x="-7.5" width="90" fill="#ffffff" y="-7.5" height="89.999996" fill-opacity="1"></rect><rect x="-7.5" width="90" fill="#ffffff" y="-7.5" height="89.999996" fill-opacity="1"></rect><g clip-path="url(#ea9ae94b02)"><path fill="#ffffff" d="M 60.355469 65.050781 L 60.355469 64.957031 C 60.347656 64.957031 60.339844 64.875 60.339844 64.875 C 60.113281 63 59.265625 61.699219 57.820312 60.996094 C 57.328125 60.761719 57.359375 60.453125 57.402344 59.988281 C 57.402344 59.917969 57.417969 59.859375 57.417969 59.792969 C 57.683594 56.140625 55.761719 53.269531 52.523438 52.476562 C 51.691406 52.273438 51.46875 51.914062 51.273438 51.175781 C 50.554688 48.394531 48.910156 46.714844 46.769531 46.566406 C 45.582031 46.484375 44.628906 45.886719 43.699219 45.316406 C 42.878906 44.8125 42.03125 44.285156 41.042969 44.117188 C 40.84375 44.085938 40.761719 43.921875 40.746094 43.476562 C 40.722656 42.859375 40.6875 42.234375 40.65625 41.632812 C 40.585938 40.253906 40.511719 38.824219 40.496094 37.421875 C 40.496094 36.863281 40.707031 36.308594 41.085938 35.929688 C 41.335938 35.675781 41.632812 35.539062 41.902344 35.539062 C 42.175781 35.539062 42.117188 35.5625 42.214844 35.605469 C 43.183594 36.027344 44.25 36.238281 45.394531 36.238281 C 48.980469 36.238281 53.511719 33.980469 55.578125 28.925781 C 56.222656 27.34375 56.707031 25.5 55.390625 23.835938 C 54.632812 22.878906 53.605469 22.394531 52.332031 22.394531 C 51.0625 22.394531 51.28125 22.472656 50.691406 22.621094 C 45.90625 23.828125 42.707031 26.871094 41.179688 31.652344 C 41.140625 31.773438 41.109375 31.894531 41.078125 32.015625 C 40.972656 32.449219 40.875 32.859375 40.40625 33.074219 C 40.390625 32.707031 40.367188 32.34375 40.351562 31.984375 C 40.300781 31.027344 40.253906 30.117188 40.238281 29.195312 C 40.238281 28.820312 40.210938 28.445312 40.179688 28.066406 C 40.066406 26.363281 39.953125 24.753906 41.578125 23.609375 C 41.777344 23.464844 41.890625 23.15625 41.925781 22.9375 C 42.003906 22.449219 42.140625 22.449219 42.222656 22.449219 C 42.304688 22.449219 42.464844 22.492188 42.660156 22.578125 C 43.167969 22.800781 43.660156 22.921875 44.136719 22.921875 C 44.976562 22.921875 45.757812 22.554688 46.375 21.851562 C 47.375 20.730469 47.558594 19.285156 46.890625 17.882812 C 46.574219 17.207031 46.800781 17.101562 47.351562 16.835938 C 48.542969 16.265625 49.175781 15.234375 49.183594 13.855469 C 49.191406 12.410156 48.519531 11.308594 47.277344 10.742188 C 46.605469 10.441406 46.589844 10.238281 46.832031 9.507812 C 47.269531 8.183594 47.003906 6.941406 46.089844 6.027344 C 45.445312 5.382812 44.703125 5.042969 43.960938 5.042969 C 43.222656 5.042969 43.078125 5.164062 42.652344 5.386719 C 42.449219 5.492188 42.289062 5.554688 42.167969 5.554688 C 41.949219 5.554688 41.84375 5.367188 41.660156 5.011719 C 41.632812 4.953125 41.601562 4.898438 41.570312 4.839844 C 40.890625 3.589844 39.851562 2.871094 38.726562 2.871094 C 37.597656 2.871094 36.578125 3.605469 35.957031 4.882812 C 35.691406 5.425781 35.539062 5.59375 35.289062 5.59375 C 35.039062 5.59375 34.972656 5.546875 34.722656 5.441406 C 34.320312 5.277344 33.921875 5.191406 33.535156 5.191406 C 32.703125 5.191406 31.9375 5.570312 31.316406 6.292969 C 30.453125 7.292969 30.289062 8.535156 30.839844 9.800781 C 31.105469 10.40625 31.050781 10.546875 30.460938 10.894531 C 29.320312 11.578125 28.652344 12.65625 28.652344 13.863281 C 28.652344 15.066406 29.328125 16.203125 30.46875 16.90625 C 30.515625 16.933594 30.558594 16.957031 30.597656 16.980469 C 31.148438 17.3125 31.363281 17.441406 30.945312 18.191406 C 30.25 19.472656 30.453125 20.890625 31.484375 21.980469 C 32.179688 22.71875 32.945312 23.089844 33.761719 23.089844 C 34.171875 23.089844 34.601562 22.992188 35.03125 22.800781 C 35.125 22.765625 35.222656 22.695312 35.320312 22.628906 C 35.394531 22.578125 35.53125 22.484375 35.601562 22.464844 C 35.75 22.984375 36.09375 23.375 36.410156 23.765625 C 36.804688 24.234375 37.183594 24.679688 37.167969 25.28125 C 37.136719 27.433594 37.023438 29.632812 36.910156 31.765625 C 36.871094 32.554688 36.828125 33.378906 36.789062 34.191406 C 35.917969 33.769531 35.742188 33 35.554688 32.195312 C 35.539062 32.128906 35.523438 32.058594 35.507812 31.992188 C 34.910156 29.460938 33.4375 27.074219 31.347656 25.257812 C 29.265625 23.441406 26.851562 22.441406 24.558594 22.441406 C 22.265625 22.441406 24.46875 22.441406 24.421875 22.441406 C 23.105469 22.464844 21.992188 22.960938 21.296875 23.835938 C 20.554688 24.769531 20.3125 26.085938 20.632812 27.539062 C 21.160156 29.972656 22.539062 32.203125 24.519531 33.820312 C 26.457031 35.402344 28.8125 36.277344 31.148438 36.277344 C 32.140625 36.277344 33.117188 36.117188 34.050781 35.800781 C 34.253906 35.734375 34.417969 35.703125 34.570312 35.703125 C 34.890625 35.703125 35.136719 35.847656 35.515625 36.132812 C 36.683594 37.015625 36.613281 38.160156 36.539062 39.363281 C 36.515625 39.734375 36.492188 40.125 36.507812 40.503906 C 36.578125 42.183594 36.484375 43.378906 34.675781 43.574219 C 34.078125 43.636719 33.503906 44.214844 33.285156 44.457031 C 32.6875 45.121094 32.019531 45.390625 30.984375 45.390625 L 30.9375 45.390625 C 29.5625 45.390625 28.378906 45.773438 27.425781 46.527344 C 26.472656 47.28125 25.769531 48.382812 25.324219 49.804688 C 25.117188 50.46875 24.855469 50.476562 24.269531 50.503906 L 24.234375 50.503906 C 22.675781 50.582031 21.480469 51.003906 20.59375 51.792969 C 19.699219 52.582031 19.132812 53.730469 18.851562 55.289062 C 18.746094 55.867188 18.472656 56.09375 18.042969 56.394531 C 16.292969 57.601562 15.652344 59.355469 16.234375 61.351562 C 16.46875 62.15625 16.460938 62.578125 15.808594 63.121094 C 14.917969 63.867188 14.523438 64.867188 14.714844 65.945312 C 14.714844 65.945312 14.714844 65.984375 14.714844 65.984375 C 14.714844 65.984375 14.714844 65.992188 14.714844 66 L 14.714844 66.011719 C 15.183594 68.785156 15.9375 69.589844 18.542969 70.089844 C 19.699219 70.304688 20.738281 70.417969 21.722656 70.417969 C 22.78125 70.417969 23.78125 70.292969 24.703125 70.027344 C 25.574219 69.785156 26.285156 69.671875 26.925781 69.671875 C 28.03125 69.671875 28.964844 70.003906 29.863281 70.714844 C 30.371094 71.113281 31.097656 71.242188 31.742188 71.347656 L 31.824219 71.359375 C 33.84375 71.707031 35.691406 71.871094 37.476562 71.871094 C 40.324219 71.871094 42.910156 71.445312 45.386719 70.5625 C 45.613281 70.480469 45.839844 70.441406 46.089844 70.441406 C 46.339844 70.441406 46.679688 70.496094 46.988281 70.554688 L 47.097656 70.578125 C 49.160156 70.945312 50.855469 71.113281 52.4375 71.113281 C 54.019531 71.113281 54.964844 70.992188 56.148438 70.75 C 59.242188 70.109375 60.507812 68.414062 60.355469 65.085938 Z M 60.355469 65.050781 " fill-opacity="1" fill-rule="nonzero"></path></g><g clip-path="url(#bf801a9f03)"><path fill="#8a6235" d="M 60.1875 64.972656 C 60.363281 68.28125 59.1875 69.9375 56.109375 70.570312 C 53.105469 71.195312 50.109375 70.925781 47.117188 70.398438 C 46.511719 70.292969 45.960938 70.171875 45.324219 70.398438 C 40.90625 71.972656 36.386719 71.964844 31.839844 71.1875 C 31.1875 71.074219 30.453125 70.96875 29.945312 70.570312 C 28.273438 69.25 26.570312 69.328125 24.648438 69.863281 C 22.667969 70.417969 20.59375 70.304688 18.558594 69.914062 C 16.023438 69.425781 15.304688 68.671875 14.839844 65.945312 C 14.925781 65.800781 15.007812 65.660156 15.03125 65.5 C 15.210938 64.183594 16.5 63.632812 16.894531 62.625 C 17.277344 61.628906 16.316406 60.378906 16.664062 59.167969 C 16.90625 58.316406 17.269531 57.507812 18.011719 57.042969 C 18.851562 56.515625 19.300781 55.898438 19.449219 54.761719 C 19.738281 52.578125 21.707031 51.054688 24.113281 51.136719 C 25.300781 51.175781 25.664062 50.777344 25.929688 49.609375 C 26.414062 47.476562 28.449219 45.957031 30.695312 45.957031 C 31.863281 45.957031 32.929688 45.917969 33.6875 44.796875 C 33.800781 44.621094 34.003906 44.5 34.191406 44.425781 C 35.03125 44.082031 35.910156 43.039062 36.757812 44.230469 C 37.484375 45.246094 36.894531 47.328125 35.789062 47.882812 C 34.375 48.585938 33.148438 49.503906 32.300781 50.933594 C 34.835938 46.65625 41.179688 46.0625 43.675781 50.308594 C 43.207031 49.632812 42.433594 48.742188 41.414062 48.132812 C 40.695312 47.710938 40.464844 47.023438 40.542969 46.1875 C 40.625 45.203125 41.109375 44.832031 42.011719 45.128906 C 42.402344 45.253906 42.773438 45.449219 43.109375 45.714844 C 44.070312 46.46875 45.082031 46.859375 46.332031 46.988281 C 48.65625 47.226562 50.03125 48.921875 50.714844 51.21875 C 51.007812 52.222656 51.433594 52.824219 52.484375 53.109375 C 55.488281 53.925781 57.007812 56.160156 56.84375 59.476562 C 56.78125 60.605469 56.972656 61.3125 57.972656 61.804688 C 58.847656 62.222656 59.363281 63.066406 59.621094 64.054688 C 59.71875 64.4375 59.824219 64.785156 60.179688 64.964844 Z M 60.1875 64.972656 " fill-opacity="1" fill-rule="nonzero"></path></g><g clip-path="url(#1c847e86bc)"><path fill="#121314" d="M 60.1875 64.972656 C 59.863281 65.160156 59.621094 65.15625 59.515625 64.710938 C 59.152344 63.234375 58.273438 62.222656 57.003906 61.597656 C 56.359375 61.289062 56.3125 60.890625 56.441406 60.175781 C 57.007812 56.90625 55.335938 54.15625 52.300781 53.441406 C 51.234375 53.1875 50.726562 52.726562 50.449219 51.558594 C 49.773438 48.71875 47.996094 47.296875 45.203125 47.28125 C 44.183594 47.28125 43.707031 46.429688 42.941406 46.070312 C 42.304688 45.765625 41.539062 44.710938 40.996094 45.601562 C 40.519531 46.371094 40.808594 47.410156 41.875 48.011719 C 43.054688 48.683594 43.917969 49.8125 44.605469 51.054688 C 44.734375 51.289062 44.910156 51.566406 44.605469 51.761719 C 44.347656 51.9375 44.128906 51.761719 43.976562 51.507812 C 43.863281 51.324219 43.734375 51.152344 43.636719 50.964844 C 41.398438 46.738281 35.28125 46.964844 32.738281 50.988281 C 32.496094 51.371094 32.355469 51.890625 31.824219 52.003906 C 31.421875 51.355469 31.871094 50.957031 32.132812 50.519531 C 32.980469 49.148438 34.171875 48.246094 35.570312 47.613281 C 36.386719 47.242188 36.976562 45.066406 36.523438 44.269531 C 36.386719 44.027344 36.214844 44.003906 36.015625 44.035156 C 35.820312 44.066406 35.578125 44.101562 35.441406 44.230469 C 33.59375 45.976562 31.308594 46.316406 29 46.808594 C 27.417969 47.144531 26.300781 48.464844 26.148438 50.269531 C 26.058594 51.402344 25.65625 51.613281 24.710938 51.523438 C 22.789062 51.332031 20.957031 51.90625 20.191406 53.855469 C 19.554688 55.476562 19.066406 56.9375 17.640625 58.074219 C 16.644531 58.878906 16.574219 60.433594 17.332031 61.675781 C 17.832031 62.496094 17.695312 63.007812 16.90625 63.316406 C 15.726562 63.785156 15.816406 65.320312 14.855469 65.953125 C 14.636719 64.800781 15.113281 63.867188 15.894531 63.21875 C 16.597656 62.632812 16.613281 62.15625 16.363281 61.296875 C 15.789062 59.339844 16.460938 57.652344 18.109375 56.507812 C 18.558594 56.199219 18.875 55.941406 18.988281 55.304688 C 19.535156 52.28125 21.214844 50.796875 24.234375 50.648438 C 24.839844 50.617188 25.21875 50.617188 25.46875 49.84375 C 26.34375 47.039062 28.25 45.527344 30.960938 45.535156 C 31.953125 45.535156 32.710938 45.316406 33.398438 44.554688 C 33.738281 44.179688 34.238281 43.769531 34.691406 43.726562 C 36.675781 43.515625 36.71875 42.105469 36.660156 40.496094 C 36.597656 38.921875 37.210938 37.234375 35.609375 36.011719 C 35.046875 35.589844 34.699219 35.425781 34.003906 35.660156 C 28.488281 37.527344 22.105469 33.566406 20.789062 27.511719 C 20.175781 24.699219 21.707031 22.644531 24.429688 22.597656 C 29.136719 22.515625 34.132812 26.808594 35.367188 32.027344 C 35.59375 32.984375 35.738281 33.957031 36.933594 34.417969 C 37.074219 31.328125 37.273438 28.308594 37.316406 25.289062 C 37.332031 24.113281 36.054688 23.53125 35.738281 22.410156 C 35.652344 22.125 35.222656 22.570312 34.964844 22.683594 C 33.65625 23.253906 32.527344 22.894531 31.589844 21.890625 C 30.613281 20.851562 30.402344 19.519531 31.074219 18.277344 C 31.589844 17.328125 31.164062 17.167969 30.539062 16.785156 C 28.222656 15.367188 28.199219 12.414062 30.53125 11.03125 C 31.15625 10.652344 31.269531 10.441406 30.96875 9.75 C 30.453125 8.566406 30.574219 7.382812 31.421875 6.398438 C 32.308594 5.367188 33.472656 5.09375 34.652344 5.585938 C 35.457031 5.914062 35.683594 5.773438 36.085938 4.953125 C 37.316406 2.390625 40.058594 2.390625 41.425781 4.914062 C 41.753906 5.515625 41.882812 5.984375 42.722656 5.53125 C 43.871094 4.90625 45.03125 5.191406 45.984375 6.140625 C 46.90625 7.066406 47.082031 8.289062 46.6875 9.472656 C 46.421875 10.269531 46.453125 10.546875 47.210938 10.894531 C 48.382812 11.421875 49.039062 12.46875 49.027344 13.863281 C 49.019531 15.179688 48.414062 16.160156 47.277344 16.710938 C 46.71875 16.980469 46.363281 17.160156 46.746094 17.960938 C 47.382812 19.300781 47.222656 20.671875 46.253906 21.761719 C 45.28125 22.863281 44.007812 23.035156 42.714844 22.449219 C 42.132812 22.183594 41.875 22.246094 41.769531 22.921875 C 41.738281 23.125 41.632812 23.390625 41.488281 23.496094 C 39.414062 24.957031 40.050781 27.171875 40.082031 29.210938 C 40.101562 30.558594 40.195312 31.902344 40.261719 33.300781 C 41.148438 33.03125 41.132812 32.292969 41.3125 31.707031 C 42.871094 26.832031 46.097656 23.941406 50.714844 22.773438 C 52.355469 22.359375 54.058594 22.417969 55.253906 23.933594 C 56.472656 25.46875 56.109375 27.195312 55.429688 28.875 C 52.945312 34.964844 46.542969 37.339844 42.265625 35.472656 C 41.40625 35.09375 40.324219 36.15625 40.335938 37.429688 C 40.359375 39.449219 40.496094 41.472656 40.578125 43.492188 C 40.59375 43.832031 40.640625 44.214844 41.003906 44.269531 C 43.078125 44.605469 44.460938 46.558594 46.746094 46.714844 C 49.039062 46.875 50.484375 48.808594 51.113281 51.214844 C 51.328125 52.019531 51.605469 52.410156 52.46875 52.621094 C 55.671875 53.398438 57.507812 56.25 57.25 59.777344 C 57.214844 60.320312 57.070312 60.808594 57.734375 61.132812 C 59.257812 61.871094 60 63.234375 60.1875 64.972656 Z M 60.1875 64.972656 " fill-opacity="1" fill-rule="nonzero"></path></g><path fill="#121212" d="M 28.039062 56.46875 C 27.941406 54.957031 28.871094 54.480469 29.742188 54.226562 C 31.066406 53.828125 32.332031 54.023438 33.277344 55.613281 C 32.140625 55.6875 31.527344 54.59375 30.507812 54.769531 C 29.46875 54.941406 28.925781 55.824219 28.039062 56.476562 Z M 28.039062 56.46875 " fill-opacity="1" fill-rule="nonzero"></path><path fill="#1e1612" d="M 45.292969 56.742188 C 44.894531 56.597656 44.484375 57.277344 44.0625 56.816406 C 43.925781 56.667969 43.96875 56.394531 44.152344 56.246094 C 44.621094 55.859375 45.160156 55.738281 45.726562 55.929688 C 46.011719 56.027344 46.308594 56.140625 46.558594 56.320312 C 46.90625 56.574219 47.542969 56.824219 47.117188 57.398438 C 46.710938 57.953125 46.460938 57.246094 46.179688 57.019531 C 45.914062 56.808594 45.644531 56.742188 45.292969 56.742188 Z M 45.292969 56.742188 " fill-opacity="1" fill-rule="nonzero"></path><path fill="#e25043" d="M 36.078125 7.484375 C 36.515625 7.066406 36.457031 6.535156 36.523438 6.074219 C 36.726562 4.761719 37.4375 3.996094 38.65625 3.890625 C 39.875 3.785156 40.601562 4.636719 40.875 5.742188 C 41.199219 7.097656 41.464844 7.632812 42.738281 6.496094 C 43.578125 5.734375 44.71875 5.921875 45.515625 6.851562 C 46.355469 7.820312 46.390625 8.996094 45.574219 9.96875 C 44.667969 11.050781 44.871094 11.324219 46.140625 11.421875 C 47.351562 11.511719 48.125 12.347656 48.222656 13.644531 C 48.328125 15.042969 47.609375 15.949219 46.324219 16.175781 C 45.242188 16.363281 44.847656 16.597656 45.703125 17.71875 C 46.519531 18.789062 46.617188 20.082031 45.679688 21.152344 C 44.660156 22.3125 43.449219 22.085938 42.359375 21.222656 C 41.519531 20.550781 41.300781 20.714844 41.191406 21.800781 C 41.035156 23.375 40.027344 24.429688 38.855469 24.300781 C 37.445312 24.144531 36.652344 23.230469 36.613281 21.6875 C 36.589844 20.699219 36.394531 20.511719 35.585938 21.175781 C 34.164062 22.359375 32.960938 22.359375 32.058594 21.257812 C 30.984375 19.941406 31.421875 18.757812 32.445312 17.664062 C 33.222656 16.835938 32.722656 16.574219 31.96875 16.460938 C 31.113281 16.332031 30.402344 15.933594 29.902344 15.1875 C 28.933594 13.734375 29.886719 11.828125 31.742188 11.503906 C 32.339844 11.398438 33.285156 11.519531 32.359375 10.488281 C 31.339844 9.34375 30.953125 8.191406 32.027344 6.894531 C 32.867188 5.878906 34.140625 6.015625 35.585938 7.171875 C 35.738281 7.292969 35.917969 7.390625 36.070312 7.496094 Z M 36.078125 7.484375 " fill-opacity="1" fill-rule="nonzero"></path><path fill="#87bf5c" d="M 34.820312 33.867188 C 31.824219 31.601562 29.046875 29.46875 26.230469 27.390625 C 25.835938 27.09375 25.390625 26.167969 24.898438 26.878906 C 24.519531 27.425781 25.382812 27.683594 25.753906 27.96875 C 28.078125 29.761719 30.425781 31.515625 32.753906 33.300781 C 33.203125 33.648438 33.722656 33.910156 34.101562 34.613281 C 33.035156 35.246094 31.890625 35.410156 30.757812 35.3125 C 26.480469 34.945312 23.507812 32.578125 21.804688 28.40625 C 21.28125 27.117188 20.996094 25.746094 21.949219 24.527344 C 22.953125 23.246094 24.300781 23.15625 25.738281 23.480469 C 30.546875 24.550781 34.304688 28.722656 34.8125 33.867188 Z M 34.820312 33.867188 " fill-opacity="1" fill-rule="nonzero"></path><path fill="#84c05c" d="M 41.65625 33.828125 C 42.207031 30.597656 43.417969 28.253906 45.414062 26.441406 C 47.148438 24.859375 49.175781 23.796875 51.449219 23.382812 C 54.195312 22.886719 55.804688 24.851562 55.027344 27.683594 C 53.65625 32.648438 48.320312 36.082031 43.570312 35.035156 C 43.191406 34.953125 42.617188 34.988281 42.507812 34.558594 C 42.367188 33.964844 43.007812 33.820312 43.351562 33.566406 C 45.890625 31.636719 48.464844 29.746094 51.007812 27.828125 C 51.386719 27.539062 52.273438 27.304688 51.910156 26.765625 C 51.46875 26.109375 50.941406 26.953125 50.539062 27.246094 C 47.921875 29.160156 45.339844 31.117188 42.746094 33.0625 C 42.503906 33.242188 42.253906 33.40625 41.664062 33.828125 Z M 41.65625 33.828125 " fill-opacity="1" fill-rule="nonzero"></path><path fill="#89c45d" d="M 40.003906 45.933594 C 40.019531 46.355469 40.542969 47.445312 39.46875 47.101562 C 38.710938 46.859375 37.167969 47.945312 37.234375 45.902344 C 37.363281 42.085938 37.476562 38.257812 37.628906 34.4375 C 37.734375 31.765625 37.863281 29.089844 38.015625 26.425781 C 38.042969 25.964844 37.765625 25.175781 38.605469 25.207031 C 39.332031 25.226562 39.269531 25.929688 39.277344 26.449219 C 39.292969 29.777344 39.867188 42.769531 39.996094 45.933594 Z M 40.003906 45.933594 " fill-opacity="1" fill-rule="nonzero"></path><path fill="#78805d" d="M 35.367188 34.378906 C 36.222656 34.847656 36.636719 35.273438 36.902344 35.902344 C 36.390625 35.765625 35.878906 35.257812 35.367188 34.378906 Z M 35.367188 34.378906 " fill-opacity="1" fill-rule="nonzero"></path><path fill="#78805d" d="M 41.496094 34.121094 C 41.027344 34.972656 40.59375 35.386719 39.96875 35.652344 C 40.101562 35.144531 40.613281 34.636719 41.496094 34.121094 Z M 41.496094 34.121094 " fill-opacity="1" fill-rule="nonzero"></path><path fill="#161619" d="M 38.816406 8.792969 C 41.542969 8.777344 43.839844 11.144531 43.878906 13.996094 C 43.917969 16.84375 41.640625 19.316406 38.9375 19.351562 C 36.242188 19.390625 33.84375 16.988281 33.808594 14.207031 C 33.761719 11.242188 36.007812 8.808594 38.816406 8.792969 Z M 38.816406 8.792969 " fill-opacity="1" fill-rule="nonzero"></path><path fill="#f3cd3e" d="M 43.054688 14.089844 C 43.054688 16.558594 41.164062 18.53125 38.816406 18.5 C 36.464844 18.472656 34.527344 16.445312 34.5625 14.058594 C 34.601562 11.542969 36.578125 9.492188 38.929688 9.53125 C 41.222656 9.570312 43.054688 11.585938 43.054688 14.09375 Z M 43.054688 14.089844 " fill-opacity="1" fill-rule="nonzero"></path></svg>