<svg xmlns="http://www.w3.org/2000/svg" xmlns:xlink="http://www.w3.org/1999/xlink" width="100" zoomAndPan="magnify" viewBox="0 0 75 74.999997" height="100" preserveAspectRatio="xMidYMid meet"><defs><clipPath id="985648986f"><path d="M 21 41 L 36 41 L 36 64.453125 L 21 64.453125 Z M 21 41 " clip-rule="nonzero"></path></clipPath><clipPath id="4da32ae10c"><path d="M 35 41 L 50 41 L 50 64.453125 L 35 64.453125 Z M 35 41 " clip-rule="nonzero"></path></clipPath><clipPath id="99f2867d64"><path d="M 11 5.953125 L 60 5.953125 L 60 54 L 11 54 Z M 11 5.953125 " clip-rule="nonzero"></path></clipPath></defs><rect x="-7.5" width="90" fill="#ffffff" y="-7.5" height="89.999996" fill-opacity="1"></rect><rect x="-7.5" width="90" fill="#ffffff" y="-7.5" height="89.999996" fill-opacity="1"></rect><path fill="#74c6f3" d="M 14.316406 51.167969 C 14.316406 51.167969 22.207031 55.460938 25.960938 45.636719 L 22.253906 40.605469 L 12.816406 46.351562 Z M 14.316406 51.167969 " fill-opacity="1" fill-rule="nonzero"></path><path fill="#000000" d="M 18.238281 52.742188 C 15.910156 52.742188 14.109375 51.78125 14.007812 51.726562 C 13.863281 51.648438 13.753906 51.515625 13.703125 51.355469 L 12.207031 46.542969 C 12.117188 46.261719 12.230469 45.960938 12.484375 45.808594 L 21.921875 40.058594 C 22.207031 39.886719 22.574219 39.960938 22.773438 40.226562 L 26.476562 45.257812 C 26.605469 45.433594 26.636719 45.660156 26.558594 45.863281 C 25.28125 49.210938 23.386719 51.371094 20.929688 52.273438 C 20 52.613281 19.082031 52.742188 18.238281 52.742188 Z M 14.84375 50.710938 C 15.582031 51.046875 18.03125 51.984375 20.496094 51.070312 C 22.507812 50.324219 24.101562 48.53125 25.234375 45.730469 L 22.085938 41.457031 L 13.578125 46.640625 Z M 14.84375 50.710938 " fill-opacity="1" fill-rule="nonzero"></path><path fill="#74c6f3" d="M 59.980469 46.195312 C 59.980469 46.195312 52.089844 50.488281 48.335938 40.664062 L 52.039062 35.636719 L 61.476562 41.382812 Z M 59.980469 46.195312 " fill-opacity="1" fill-rule="nonzero"></path><path fill="#000000" d="M 56.058594 47.769531 C 55.210938 47.769531 54.296875 47.644531 53.367188 47.300781 C 50.910156 46.398438 49.015625 44.242188 47.738281 40.890625 C 47.660156 40.6875 47.691406 40.460938 47.820312 40.285156 L 51.523438 35.257812 C 51.722656 34.988281 52.089844 34.917969 52.375 35.089844 L 61.8125 40.835938 C 62.0625 40.988281 62.179688 41.292969 62.089844 41.570312 L 60.59375 46.386719 C 60.542969 46.542969 60.433594 46.675781 60.289062 46.757812 C 60.1875 46.8125 58.386719 47.769531 56.058594 47.769531 Z M 49.0625 40.757812 C 50.195312 43.558594 51.789062 45.355469 53.796875 46.097656 C 56.265625 47.011719 58.710938 46.074219 59.449219 45.742188 L 60.71875 41.667969 L 52.210938 36.488281 Z M 59.980469 46.195312 Z M 59.980469 46.195312 " fill-opacity="1" fill-rule="nonzero"></path><path fill="#000000" d="M 34.808594 43.589844 L 33.3125 54.476562 C 29.65625 53.03125 25.4375 52.796875 25.4375 52.796875 L 26.851562 42.503906 Z M 34.808594 43.589844 " fill-opacity="1" fill-rule="nonzero"></path><path fill="#74c6f3" d="M 33.3125 54.476562 L 32.984375 56.859375 C 32.890625 57.515625 32.816406 58.179688 32.792969 58.84375 C 32.734375 60.523438 31.21875 62.335938 28.925781 63.253906 C 26.121094 64.378906 23.21875 63.734375 22.445312 61.816406 C 21.800781 60.210938 22.851562 58.21875 24.863281 56.957031 L 25.4375 52.796875 C 25.4375 52.796875 29.65625 53.03125 33.3125 54.476562 Z M 33.3125 54.476562 " fill-opacity="1" fill-rule="nonzero"></path><path fill="#74c6f3" d="M 46.234375 56.957031 C 48.246094 58.21875 49.300781 60.210938 48.652344 61.816406 C 47.882812 63.734375 44.980469 64.378906 42.175781 63.253906 C 39.882812 62.335938 38.363281 60.523438 38.304688 58.84375 C 38.285156 58.179688 38.207031 57.515625 38.117188 56.859375 L 37.789062 54.476562 C 41.445312 53.03125 45.664062 52.796875 45.664062 52.796875 Z M 46.234375 56.957031 " fill-opacity="1" fill-rule="nonzero"></path><path fill="#000000" d="M 44.246094 42.503906 L 45.664062 52.796875 C 45.664062 52.796875 41.445312 53.03125 37.789062 54.476562 L 36.289062 43.589844 Z M 44.246094 42.503906 " fill-opacity="1" fill-rule="nonzero"></path><g clip-path="url(#985648986f)"><path fill="#000000" d="M 26.171875 64.449219 C 25.691406 64.449219 25.226562 64.398438 24.785156 64.300781 C 23.347656 63.980469 22.304688 63.183594 21.851562 62.054688 C 21.128906 60.261719 22.121094 58.046875 24.269531 56.582031 L 26.21875 42.414062 C 26.265625 42.066406 26.589844 41.820312 26.941406 41.867188 L 34.898438 42.957031 C 35.066406 42.980469 35.21875 43.070312 35.320312 43.203125 C 35.425781 43.339844 35.46875 43.507812 35.445312 43.675781 L 33.945312 54.5625 C 33.945312 54.5625 33.617188 56.945312 33.617188 56.945312 C 33.539062 57.511719 33.457031 58.179688 33.433594 58.863281 C 33.367188 60.847656 31.652344 62.851562 29.164062 63.847656 C 28.175781 64.242188 27.148438 64.445312 26.171875 64.445312 Z M 27.402344 43.222656 L 25.5 57.042969 C 25.472656 57.230469 25.367188 57.394531 25.207031 57.496094 C 23.417969 58.621094 22.527344 60.300781 23.042969 61.578125 C 23.671875 63.140625 26.257812 63.632812 28.6875 62.660156 C 30.675781 61.863281 32.101562 60.285156 32.152344 58.820312 C 32.179688 58.082031 32.265625 57.371094 32.347656 56.773438 L 34.085938 44.136719 Z M 33.3125 54.476562 Z M 33.3125 54.476562 " fill-opacity="1" fill-rule="nonzero"></path></g><g clip-path="url(#4da32ae10c)"><path fill="#000000" d="M 44.929688 64.449219 C 43.953125 64.449219 42.925781 64.246094 41.933594 63.847656 C 39.449219 62.851562 37.734375 60.847656 37.664062 58.867188 C 37.640625 58.183594 37.558594 57.511719 37.480469 56.945312 L 37.152344 54.566406 C 37.152344 54.566406 35.65625 43.679688 35.65625 43.679688 C 35.632812 43.511719 35.675781 43.339844 35.78125 43.207031 C 35.882812 43.070312 36.035156 42.980469 36.203125 42.957031 L 44.160156 41.871094 C 44.511719 41.820312 44.835938 42.066406 44.882812 42.417969 L 46.832031 56.582031 C 48.980469 58.046875 49.972656 60.265625 49.25 62.058594 C 48.792969 63.1875 47.753906 63.984375 46.316406 64.300781 C 45.875 64.398438 45.40625 64.449219 44.929688 64.449219 Z M 38.421875 54.390625 L 38.75 56.773438 C 38.835938 57.371094 38.921875 58.082031 38.945312 58.820312 C 38.996094 60.285156 40.421875 61.863281 42.414062 62.664062 C 43.652344 63.15625 44.9375 63.296875 46.035156 63.054688 C 47.046875 62.828125 47.765625 62.304688 48.058594 61.582031 C 48.574219 60.300781 47.683594 58.621094 45.894531 57.496094 C 45.734375 57.394531 45.625 57.230469 45.601562 57.042969 L 43.699219 43.222656 L 37.011719 44.136719 Z M 38.421875 54.390625 " fill-opacity="1" fill-rule="nonzero"></path></g><path fill="#74c6f3" d="M 58.722656 29.695312 C 58.722656 31.285156 58.5625 32.835938 58.257812 34.332031 C 57.90625 36.046875 57.363281 37.695312 56.65625 39.25 C 54.1875 44.664062 49.683594 48.957031 44.121094 51.167969 C 42.1875 51.9375 40.125 52.449219 37.972656 52.675781 C 37.175781 52.757812 36.367188 52.796875 35.550781 52.796875 C 29.5625 52.796875 24.105469 50.535156 19.992188 46.820312 C 15.316406 42.59375 12.375 36.488281 12.375 29.695312 C 12.375 17.851562 21.316406 8.085938 32.835938 6.75 C 33.726562 6.644531 34.632812 6.59375 35.550781 6.59375 C 42.25 6.59375 48.285156 9.425781 52.515625 13.957031 C 55.433594 17.085938 57.496094 21.019531 58.320312 25.386719 C 58.585938 26.785156 58.722656 28.222656 58.722656 29.695312 Z M 58.722656 29.695312 " fill-opacity="1" fill-rule="nonzero"></path><path fill="#6dba4f" d="M 52.515625 13.957031 C 50.042969 16.59375 45.253906 17.640625 40.796875 15.605469 C 36.476562 13.628906 33.300781 10.0625 32.835938 6.75 C 33.726562 6.644531 34.632812 6.59375 35.550781 6.59375 C 42.25 6.59375 48.285156 9.425781 52.515625 13.957031 Z M 52.515625 13.957031 " fill-opacity="1" fill-rule="nonzero"></path><path fill="#6dba4f" d="M 37.589844 52.675781 C 36.808594 52.757812 36.019531 52.796875 35.21875 52.796875 C 29.359375 52.796875 24.019531 50.535156 19.992188 46.820312 C 20.648438 44.5 21.972656 42.441406 23.628906 41.175781 C 27.371094 38.308594 31.382812 40.589844 34.976562 45.460938 C 36.648438 47.722656 37.515625 50.289062 37.589844 52.675781 Z M 37.589844 52.675781 " fill-opacity="1" fill-rule="nonzero"></path><path fill="#6dba4f" d="M 58.320312 25.390625 C 56.761719 25.867188 55.367188 27.1875 54.492188 29.421875 C 54.464844 29.492188 54.4375 29.566406 54.410156 29.636719 C 53.613281 31.808594 52.066406 33.625 50.003906 34.679688 C 48.527344 35.433594 47.097656 36.523438 45.84375 37.917969 C 41.894531 42.316406 41.167969 48.144531 44.117188 51.167969 C 49.683594 48.957031 54.1875 44.664062 56.65625 39.25 C 57.363281 37.695312 57.90625 36.046875 58.257812 34.332031 C 58.5625 32.835938 58.722656 31.285156 58.722656 29.695312 C 58.722656 28.222656 58.585938 26.785156 58.320312 25.390625 Z M 58.320312 25.390625 " fill-opacity="1" fill-rule="nonzero"></path><path fill="#000000" d="M 40.003906 22.003906 C 41.019531 22.003906 41.835938 22.820312 41.835938 23.828125 C 41.835938 24.839844 41.019531 25.65625 40.003906 25.65625 C 38.992188 25.65625 38.171875 24.835938 38.171875 23.828125 C 38.171875 22.820312 38.992188 22.003906 40.003906 22.003906 Z M 40.003906 22.003906 " fill-opacity="1" fill-rule="nonzero"></path><path fill="#000000" d="M 31.09375 22.003906 C 32.105469 22.003906 32.925781 22.820312 32.925781 23.828125 C 32.925781 24.839844 32.105469 25.65625 31.09375 25.65625 C 30.082031 25.65625 29.261719 24.835938 29.261719 23.828125 C 29.261719 22.820312 30.082031 22.003906 31.09375 22.003906 Z M 31.09375 22.003906 " fill-opacity="1" fill-rule="nonzero"></path><g clip-path="url(#99f2867d64)"><path fill="#000000" d="M 35.550781 53.4375 C 29.1875 53.4375 23.207031 50.96875 18.710938 46.484375 C 14.210938 42 11.734375 36.039062 11.734375 29.695312 C 11.734375 23.355469 14.210938 17.390625 18.710938 12.90625 C 23.207031 8.421875 29.1875 5.953125 35.550781 5.953125 C 41.910156 5.953125 47.890625 8.421875 52.390625 12.90625 C 56.886719 17.390625 59.363281 23.355469 59.363281 29.695312 C 59.363281 36.039062 56.886719 42 52.390625 46.484375 C 47.890625 50.96875 41.910156 53.4375 35.550781 53.4375 Z M 35.550781 7.230469 C 29.53125 7.230469 23.871094 9.570312 19.617188 13.8125 C 15.359375 18.054688 13.015625 23.695312 13.015625 29.695312 C 13.015625 35.695312 15.359375 41.335938 19.617188 45.582031 C 23.871094 49.824219 29.53125 52.160156 35.550781 52.160156 C 41.570312 52.160156 47.226562 49.824219 51.484375 45.582031 C 55.738281 41.335938 58.082031 35.695312 58.082031 29.695312 C 58.082031 23.695312 55.738281 18.054688 51.484375 13.8125 C 47.226562 9.570312 41.570312 7.230469 35.550781 7.230469 Z M 35.550781 7.230469 " fill-opacity="1" fill-rule="nonzero"></path></g><path fill="#ffffff" d="M 38.515625 29.421875 C 38.035156 31.03125 36.855469 32.097656 35.550781 32.097656 C 34.242188 32.097656 33.0625 31.035156 32.585938 29.421875 Z M 38.515625 29.421875 " fill-opacity="1" fill-rule="nonzero"></path><path fill="#000000" d="M 35.550781 32.738281 C 33.964844 32.738281 32.527344 31.476562 31.96875 29.605469 C 31.914062 29.410156 31.949219 29.203125 32.070312 29.039062 C 32.191406 28.878906 32.382812 28.785156 32.585938 28.785156 L 38.515625 28.785156 C 38.714844 28.785156 38.90625 28.878906 39.027344 29.039062 C 39.148438 29.203125 39.1875 29.410156 39.128906 29.605469 C 38.570312 31.480469 37.132812 32.738281 35.550781 32.738281 Z M 33.542969 30.0625 C 34.019531 30.921875 34.765625 31.457031 35.550781 31.457031 C 36.335938 31.457031 37.078125 30.921875 37.558594 30.0625 Z M 33.542969 30.0625 " fill-opacity="1" fill-rule="nonzero"></path><path fill="#000000" d="M 26.789062 22.199219 C 26.515625 22.199219 26.277344 22 26.234375 21.726562 C 25.925781 19.75 27.117188 17.8125 29.011719 17.210938 C 29.960938 16.910156 30.992188 16.972656 31.910156 17.390625 C 32.835938 17.808594 33.566406 18.546875 33.972656 19.464844 C 34.097656 19.75 33.96875 20.078125 33.6875 20.203125 C 33.402344 20.328125 33.070312 20.199219 32.945312 19.917969 C 32.34375 18.550781 30.761719 17.828125 29.351562 18.277344 C 27.980469 18.710938 27.117188 20.121094 27.34375 21.554688 C 27.390625 21.859375 27.183594 22.144531 26.875 22.191406 C 26.847656 22.195312 26.816406 22.199219 26.789062 22.199219 Z M 26.789062 22.199219 " fill-opacity="1" fill-rule="nonzero"></path><path fill="#000000" d="M 44.3125 22.199219 C 44.28125 22.199219 44.253906 22.195312 44.222656 22.191406 C 43.917969 22.144531 43.707031 21.859375 43.757812 21.550781 C 43.980469 20.121094 43.117188 18.710938 41.746094 18.277344 C 40.335938 17.828125 38.757812 18.550781 38.152344 19.917969 C 38.027344 20.199219 37.699219 20.328125 37.414062 20.203125 C 37.128906 20.078125 37 19.746094 37.125 19.464844 C 37.53125 18.546875 38.265625 17.808594 39.1875 17.390625 C 40.109375 16.972656 41.140625 16.910156 42.085938 17.210938 C 43.980469 17.808594 45.175781 19.75 44.863281 21.722656 C 44.820312 22 44.582031 22.195312 44.3125 22.195312 Z M 44.3125 22.199219 " fill-opacity="1" fill-rule="nonzero"></path><path fill="#6dba4f" d="M 19.902344 38.316406 C 18.195312 38.679688 16.410156 36.941406 15.929688 34.5 C 15.445312 32.054688 16.441406 29.800781 18.152344 29.464844 C 19.867188 29.128906 22.152344 30.789062 22.128906 33.28125 C 22.105469 35.792969 21.277344 38.023438 19.902344 38.316406 Z M 19.902344 38.316406 " fill-opacity="1" fill-rule="nonzero"></path><path fill="#ffffff" d="M 56.058594 18.832031 C 56.699219 18.832031 57.214844 19.347656 57.214844 19.984375 C 57.214844 20.617188 56.699219 21.132812 56.058594 21.132812 C 55.421875 21.132812 54.90625 20.617188 54.90625 19.984375 C 54.90625 19.347656 55.421875 18.832031 56.058594 18.832031 Z M 56.058594 18.832031 " fill-opacity="1" fill-rule="nonzero"></path><path fill="#f9cd41" d="M 61.53125 18.210938 C 61.925781 19.421875 61.464844 20.707031 60.484375 21.417969 C 60.859375 22.566406 60.472656 23.871094 59.441406 24.621094 C 58.40625 25.371094 57.042969 25.332031 56.058594 24.621094 C 55.078125 25.332031 53.714844 25.371094 52.679688 24.621094 C 51.644531 23.871094 51.261719 22.566406 51.636719 21.417969 C 50.65625 20.707031 50.195312 19.421875 50.589844 18.210938 C 50.984375 17 52.113281 16.230469 53.324219 16.230469 C 53.699219 15.082031 54.78125 14.25 56.058594 14.25 C 57.335938 14.25 58.421875 15.082031 58.796875 16.230469 C 60.007812 16.230469 61.136719 17 61.53125 18.210938 Z M 57.214844 19.984375 C 57.214844 19.347656 56.699219 18.832031 56.058594 18.832031 C 55.421875 18.832031 54.90625 19.347656 54.90625 19.984375 C 54.90625 20.617188 55.421875 21.132812 56.058594 21.132812 C 56.695312 21.132812 57.214844 20.617188 57.214844 19.984375 Z M 57.214844 19.984375 " fill-opacity="1" fill-rule="nonzero"></path><path fill="#dd732c" d="M 48.367188 29.570312 L 63.753906 29.570312 L 63.753906 33.34375 L 48.367188 33.34375 Z M 48.367188 29.570312 " fill-opacity="1" fill-rule="nonzero"></path><path fill="#dd732c" d="M 62.398438 33.34375 L 61.46875 43.039062 L 50.652344 43.039062 L 49.722656 33.34375 Z M 62.398438 33.34375 " fill-opacity="1" fill-rule="nonzero"></path><path fill="#000000" d="M 63.753906 33.980469 L 62.398438 33.980469 C 62.042969 33.980469 61.757812 33.695312 61.757812 33.34375 C 61.757812 32.988281 62.042969 32.703125 62.398438 32.703125 L 63.109375 32.703125 L 63.109375 30.210938 L 49.011719 30.210938 L 49.011719 32.703125 L 49.722656 32.703125 C 50.078125 32.703125 50.363281 32.988281 50.363281 33.34375 C 50.363281 33.695312 50.078125 33.980469 49.722656 33.980469 L 48.367188 33.980469 C 48.015625 33.980469 47.726562 33.695312 47.726562 33.34375 L 47.726562 29.570312 C 47.726562 29.21875 48.015625 28.933594 48.367188 28.933594 L 63.753906 28.933594 C 64.105469 28.933594 64.394531 29.21875 64.394531 29.570312 L 64.394531 33.34375 C 64.394531 33.695312 64.105469 33.980469 63.753906 33.980469 Z M 63.753906 33.980469 " fill-opacity="1" fill-rule="nonzero"></path><path fill="#000000" d="M 61.46875 43.675781 L 50.652344 43.675781 C 50.320312 43.675781 50.042969 43.425781 50.011719 43.097656 L 49.085938 33.402344 C 49.066406 33.222656 49.125 33.046875 49.246094 32.914062 C 49.371094 32.777344 49.542969 32.703125 49.722656 32.703125 L 62.398438 32.703125 C 62.578125 32.703125 62.75 32.777344 62.871094 32.914062 C 62.996094 33.046875 63.054688 33.222656 63.035156 33.402344 L 62.105469 43.097656 C 62.074219 43.425781 61.800781 43.675781 61.46875 43.675781 Z M 51.234375 42.398438 L 60.886719 42.398438 L 61.691406 33.980469 L 50.429688 33.980469 Z M 51.234375 42.398438 " fill-opacity="1" fill-rule="nonzero"></path><path fill="#000000" d="M 56.058594 30.210938 C 55.707031 30.210938 55.417969 29.925781 55.417969 29.570312 L 55.417969 24.621094 C 55.417969 24.269531 55.707031 23.980469 56.058594 23.980469 C 56.414062 23.980469 56.703125 24.269531 56.703125 24.621094 L 56.703125 29.570312 C 56.703125 29.925781 56.414062 30.210938 56.058594 30.210938 Z M 56.058594 30.210938 " fill-opacity="1" fill-rule="nonzero"></path><path fill="#000000" d="M 54.371094 25.8125 C 53.644531 25.8125 52.921875 25.585938 52.304688 25.140625 C 51.1875 24.332031 50.660156 22.972656 50.914062 21.652344 C 49.929688 20.730469 49.554688 19.320312 49.980469 18.015625 C 50.40625 16.707031 51.542969 15.789062 52.878906 15.621094 C 53.453125 14.402344 54.683594 13.609375 56.058594 13.609375 C 57.4375 13.609375 58.667969 14.402344 59.242188 15.621094 C 60.582031 15.789062 61.714844 16.707031 62.140625 18.015625 C 62.566406 19.320312 62.191406 20.730469 61.207031 21.652344 C 61.460938 22.972656 60.933594 24.332031 59.816406 25.140625 C 58.703125 25.949219 57.242188 26.027344 56.058594 25.378906 C 55.535156 25.667969 54.953125 25.8125 54.371094 25.8125 Z M 56.058594 14.890625 C 55.089844 14.890625 54.234375 15.507812 53.9375 16.429688 C 53.851562 16.691406 53.605469 16.871094 53.324219 16.871094 C 52.355469 16.871094 51.5 17.488281 51.199219 18.410156 C 50.902344 19.328125 51.226562 20.332031 52.011719 20.898438 C 52.238281 21.0625 52.332031 21.351562 52.246094 21.613281 C 51.945312 22.535156 52.273438 23.535156 53.058594 24.105469 C 53.84375 24.675781 54.898438 24.675781 55.683594 24.105469 C 55.90625 23.941406 56.210938 23.941406 56.4375 24.105469 C 57.222656 24.675781 58.277344 24.675781 59.0625 24.105469 C 59.847656 23.535156 60.175781 22.535156 59.875 21.617188 C 59.789062 21.351562 59.882812 21.0625 60.109375 20.898438 C 60.894531 20.332031 61.21875 19.332031 60.917969 18.410156 C 60.621094 17.488281 59.765625 16.871094 58.796875 16.871094 C 58.515625 16.871094 58.269531 16.691406 58.183594 16.429688 C 57.886719 15.507812 57.03125 14.890625 56.058594 14.890625 Z M 56.058594 14.890625 " fill-opacity="1" fill-rule="nonzero"></path><path fill="#000000" d="M 56.058594 21.773438 C 55.070312 21.773438 54.265625 20.96875 54.265625 19.984375 C 54.265625 18.996094 55.070312 18.195312 56.058594 18.195312 C 57.050781 18.195312 57.855469 18.996094 57.855469 19.984375 C 57.855469 20.96875 57.050781 21.773438 56.058594 21.773438 Z M 56.058594 19.472656 C 55.777344 19.472656 55.546875 19.703125 55.546875 19.984375 C 55.546875 20.265625 55.777344 20.496094 56.058594 20.496094 C 56.34375 20.496094 56.570312 20.265625 56.570312 19.984375 C 56.570312 19.703125 56.34375 19.472656 56.058594 19.472656 Z M 56.058594 19.472656 " fill-opacity="1" fill-rule="nonzero"></path><path fill="#9fdb2c" d="M 15.691406 28.625 C 15.691406 28.625 12.894531 30.210938 10.871094 29.234375 C 8.84375 28.257812 7.71875 26.402344 8.355469 25.089844 C 8.992188 23.777344 11.148438 23.503906 13.175781 24.480469 C 15.199219 25.457031 15.691406 28.625 15.691406 28.625 Z M 15.691406 28.625 " fill-opacity="1" fill-rule="nonzero"></path><path fill="#9fdb2c" d="M 23.023438 25.089844 C 23.660156 26.402344 22.535156 28.257812 20.507812 29.234375 C 18.484375 30.210938 15.691406 28.625 15.691406 28.625 C 15.691406 28.625 16.179688 25.457031 18.207031 24.480469 C 20.230469 23.503906 22.386719 23.777344 23.023438 25.089844 Z M 23.023438 25.089844 " fill-opacity="1" fill-rule="nonzero"></path><path fill="#dd732c" d="M 8 35.632812 L 23.382812 35.632812 L 23.382812 39.40625 L 8 39.40625 Z M 8 35.632812 " fill-opacity="1" fill-rule="nonzero"></path><path fill="#dd732c" d="M 22.027344 39.40625 L 21.101562 49.101562 L 10.28125 49.101562 L 9.351562 39.40625 Z M 22.027344 39.40625 " fill-opacity="1" fill-rule="nonzero"></path><path fill="#000000" d="M 23.382812 40.042969 L 22.027344 40.042969 C 21.675781 40.042969 21.386719 39.757812 21.386719 39.40625 C 21.386719 39.050781 21.675781 38.765625 22.027344 38.765625 L 22.742188 38.765625 L 22.742188 36.273438 L 8.640625 36.273438 L 8.640625 38.765625 L 9.351562 38.765625 C 9.707031 38.765625 9.992188 39.050781 9.992188 39.40625 C 9.992188 39.757812 9.707031 40.042969 9.351562 40.042969 L 8 40.042969 C 7.644531 40.042969 7.355469 39.757812 7.355469 39.40625 L 7.355469 35.636719 C 7.355469 35.28125 7.644531 34.996094 8 34.996094 L 23.382812 34.996094 C 23.738281 34.996094 24.023438 35.28125 24.023438 35.636719 L 24.023438 39.40625 C 24.023438 39.757812 23.738281 40.042969 23.382812 40.042969 Z M 23.382812 40.042969 " fill-opacity="1" fill-rule="nonzero"></path><path fill="#000000" d="M 21.101562 49.738281 L 10.28125 49.738281 C 9.949219 49.738281 9.675781 49.488281 9.644531 49.160156 L 8.714844 39.464844 C 8.695312 39.285156 8.757812 39.109375 8.878906 38.972656 C 9 38.839844 9.171875 38.765625 9.351562 38.765625 L 22.027344 38.765625 C 22.207031 38.765625 22.382812 38.839844 22.503906 38.972656 C 22.625 39.109375 22.683594 39.285156 22.667969 39.464844 L 21.738281 49.160156 C 21.707031 49.488281 21.429688 49.738281 21.101562 49.738281 Z M 10.863281 48.460938 L 20.515625 48.460938 L 21.324219 40.042969 L 10.058594 40.042969 Z M 10.863281 48.460938 " fill-opacity="1" fill-rule="nonzero"></path><path fill="#000000" d="M 15.691406 36.273438 C 15.335938 36.273438 15.050781 35.988281 15.050781 35.636719 L 15.050781 28.726562 C 15.050781 28.375 15.335938 28.089844 15.691406 28.089844 C 16.042969 28.089844 16.332031 28.375 16.332031 28.726562 L 16.332031 35.636719 C 16.332031 35.988281 16.042969 36.273438 15.691406 36.273438 Z M 15.691406 36.273438 " fill-opacity="1" fill-rule="nonzero"></path><path fill="#000000" d="M 12.378906 30.1875 C 11.777344 30.1875 11.164062 30.085938 10.59375 29.808594 C 9.503906 29.285156 8.605469 28.507812 8.066406 27.621094 C 7.476562 26.644531 7.375 25.648438 7.78125 24.8125 C 8.183594 23.976562 9.03125 23.4375 10.164062 23.292969 C 11.195312 23.164062 12.363281 23.378906 13.453125 23.90625 C 15.757812 25.015625 16.300781 28.382812 16.324219 28.527344 C 16.367188 28.789062 16.238281 29.046875 16.007812 29.179688 C 15.914062 29.234375 14.199219 30.1875 12.378906 30.1875 Z M 10.769531 24.535156 C 10.617188 24.535156 10.46875 24.542969 10.324219 24.5625 C 9.925781 24.613281 9.214844 24.785156 8.933594 25.371094 C 8.648438 25.953125 8.957031 26.617188 9.164062 26.957031 C 9.574219 27.636719 10.28125 28.238281 11.148438 28.660156 C 12.003906 29.070312 13.082031 28.902344 13.835938 28.6875 C 14.289062 28.558594 14.683594 28.398438 14.960938 28.273438 C 14.886719 27.980469 14.769531 27.570312 14.589844 27.136719 C 14.289062 26.414062 13.753906 25.46875 12.894531 25.058594 C 12.183594 24.714844 11.445312 24.535156 10.769531 24.535156 Z M 10.769531 24.535156 " fill-opacity="1" fill-rule="nonzero"></path><path fill="#000000" d="M 19 30.1875 C 17.179688 30.1875 15.46875 29.234375 15.375 29.179688 C 15.140625 29.046875 15.015625 28.789062 15.054688 28.527344 C 15.078125 28.382812 15.625 25.015625 17.925781 23.90625 C 19.015625 23.378906 20.183594 23.164062 21.214844 23.292969 C 22.347656 23.4375 23.195312 23.976562 23.601562 24.8125 C 24.402344 26.46875 23.167969 28.664062 20.789062 29.808594 C 20.214844 30.085938 19.601562 30.1875 19 30.1875 Z M 16.421875 28.273438 C 16.695312 28.398438 17.089844 28.558594 17.542969 28.6875 C 18.296875 28.902344 19.375 29.070312 20.230469 28.660156 C 21.902344 27.851562 22.917969 26.347656 22.445312 25.371094 C 22.164062 24.785156 21.453125 24.613281 21.054688 24.5625 C 20.265625 24.460938 19.351562 24.636719 18.484375 25.058594 C 17.628906 25.46875 17.089844 26.414062 16.792969 27.136719 C 16.609375 27.570312 16.492188 27.980469 16.417969 28.273438 Z M 16.421875 28.273438 " fill-opacity="1" fill-rule="nonzero"></path><path fill="#74c6f3" d="M 68.011719 38.257812 C 68.289062 38.535156 68.539062 38.839844 68.757812 39.167969 C 68.980469 39.496094 69.164062 39.839844 69.316406 40.203125 C 69.46875 40.570312 69.582031 40.945312 69.660156 41.332031 C 69.734375 41.71875 69.773438 42.109375 69.773438 42.503906 C 69.773438 42.898438 69.734375 43.289062 69.660156 43.675781 C 69.582031 44.0625 69.46875 44.4375 69.316406 44.800781 C 69.164062 45.164062 68.980469 45.511719 68.757812 45.839844 C 68.539062 46.167969 68.289062 46.46875 68.011719 46.75 C 67.730469 47.027344 67.425781 47.277344 67.097656 47.496094 C 66.769531 47.714844 66.421875 47.898438 66.058594 48.050781 C 65.691406 48.199219 65.316406 48.316406 64.925781 48.390625 C 64.539062 48.46875 64.148438 48.507812 63.753906 48.507812 C 63.355469 48.507812 62.964844 48.46875 62.578125 48.390625 C 62.1875 48.316406 61.8125 48.199219 61.449219 48.050781 C 61.082031 47.898438 60.734375 47.714844 60.40625 47.496094 C 60.078125 47.277344 59.773438 47.027344 59.492188 46.75 C 59.214844 46.46875 58.964844 46.167969 58.746094 45.839844 C 58.523438 45.511719 58.339844 45.164062 58.1875 44.800781 C 58.035156 44.4375 57.921875 44.0625 57.84375 43.675781 C 57.769531 43.289062 57.730469 42.898438 57.730469 42.503906 C 57.730469 42.109375 57.769531 41.71875 57.84375 41.332031 C 57.921875 40.945312 58.035156 40.570312 58.1875 40.203125 C 58.339844 39.839844 58.523438 39.496094 58.746094 39.167969 C 58.964844 38.839844 59.214844 38.535156 59.492188 38.257812 C 59.773438 37.976562 60.078125 37.730469 60.40625 37.511719 C 60.734375 37.292969 61.082031 37.105469 61.449219 36.957031 C 61.8125 36.804688 62.1875 36.691406 62.578125 36.613281 C 62.964844 36.535156 63.355469 36.5 63.753906 36.5 C 64.148438 36.5 64.539062 36.535156 64.925781 36.613281 C 65.316406 36.691406 65.691406 36.804688 66.058594 36.957031 C 66.421875 37.105469 66.769531 37.292969 67.097656 37.511719 C 67.425781 37.730469 67.730469 37.976562 68.011719 38.257812 Z M 68.011719 38.257812 " fill-opacity="1" fill-rule="nonzero"></path><path fill="#000000" d="M 63.738281 49.148438 C 62.304688 49.148438 60.914062 48.6875 59.75 47.8125 C 56.8125 45.613281 56.21875 41.441406 58.425781 38.511719 C 59.492188 37.09375 61.054688 36.175781 62.816406 35.925781 C 64.578125 35.675781 66.332031 36.125 67.753906 37.191406 C 70.695312 39.390625 71.289062 43.566406 69.078125 46.492188 C 68.011719 47.914062 66.453125 48.832031 64.6875 49.082031 C 64.371094 49.125 64.054688 49.148438 63.738281 49.148438 Z M 63.761719 37.136719 C 63.507812 37.136719 63.253906 37.15625 62.996094 37.191406 C 61.574219 37.394531 60.3125 38.132812 59.449219 39.28125 C 57.667969 41.644531 58.148438 45.015625 60.519531 46.792969 C 61.667969 47.652344 63.085938 48.015625 64.507812 47.816406 C 65.933594 47.613281 67.191406 46.871094 68.054688 45.726562 C 69.835938 43.359375 69.355469 39.992188 66.984375 38.214844 C 66.042969 37.507812 64.921875 37.136719 63.761719 37.136719 Z M 63.761719 37.136719 " fill-opacity="1" fill-rule="nonzero"></path><path fill="#74c6f3" d="M 15.339844 44.855469 C 15.617188 45.132812 15.867188 45.4375 16.085938 45.765625 C 16.308594 46.09375 16.492188 46.4375 16.644531 46.804688 C 16.796875 47.167969 16.910156 47.542969 16.988281 47.929688 C 17.0625 48.316406 17.101562 48.707031 17.101562 49.101562 C 17.101562 49.496094 17.0625 49.886719 16.988281 50.273438 C 16.910156 50.660156 16.796875 51.035156 16.644531 51.398438 C 16.492188 51.761719 16.308594 52.109375 16.085938 52.4375 C 15.867188 52.765625 15.617188 53.066406 15.339844 53.347656 C 15.058594 53.625 14.753906 53.875 14.425781 54.09375 C 14.097656 54.3125 13.75 54.496094 13.386719 54.648438 C 13.019531 54.796875 12.644531 54.914062 12.253906 54.988281 C 11.867188 55.066406 11.476562 55.105469 11.082031 55.105469 C 10.683594 55.105469 10.292969 55.066406 9.90625 54.988281 C 9.515625 54.914062 9.140625 54.796875 8.777344 54.648438 C 8.410156 54.496094 8.0625 54.3125 7.734375 54.09375 C 7.40625 53.875 7.101562 53.625 6.820312 53.347656 C 6.542969 53.066406 6.292969 52.765625 6.074219 52.4375 C 5.851562 52.109375 5.667969 51.761719 5.515625 51.398438 C 5.363281 51.035156 5.25 50.660156 5.171875 50.273438 C 5.097656 49.886719 5.058594 49.496094 5.058594 49.101562 C 5.058594 48.707031 5.097656 48.316406 5.171875 47.929688 C 5.25 47.542969 5.363281 47.167969 5.515625 46.804688 C 5.667969 46.4375 5.851562 46.09375 6.074219 45.765625 C 6.292969 45.4375 6.542969 45.132812 6.820312 44.855469 C 7.101562 44.574219 7.40625 44.328125 7.734375 44.109375 C 8.0625 43.890625 8.410156 43.703125 8.777344 43.554688 C 9.140625 43.402344 9.515625 43.289062 9.90625 43.210938 C 10.292969 43.136719 10.683594 43.097656 11.082031 43.097656 C 11.476562 43.097656 11.867188 43.136719 12.253906 43.210938 C 12.644531 43.289062 13.019531 43.402344 13.386719 43.554688 C 13.75 43.703125 14.097656 43.890625 14.425781 44.109375 C 14.753906 44.328125 15.058594 44.574219 15.339844 44.855469 Z M 15.339844 44.855469 " fill-opacity="1" fill-rule="nonzero"></path><path fill="#000000" d="M 11.089844 55.742188 C 9.0625 55.742188 7.058594 54.828125 5.753906 53.09375 C 3.546875 50.164062 4.140625 45.992188 7.078125 43.789062 C 10.015625 41.589844 14.199219 42.179688 16.40625 45.109375 C 18.617188 48.039062 18.019531 52.210938 15.082031 54.414062 C 13.886719 55.308594 12.480469 55.742188 11.089844 55.742188 Z M 6.777344 52.324219 C 8.5625 54.6875 11.941406 55.167969 14.3125 53.390625 C 16.683594 51.613281 17.164062 48.242188 15.382812 45.878906 C 13.597656 43.515625 10.21875 43.035156 7.847656 44.8125 C 5.476562 46.589844 4.996094 49.960938 6.777344 52.324219 Z M 6.777344 52.324219 " fill-opacity="1" fill-rule="nonzero"></path></svg>