<svg xmlns="http://www.w3.org/2000/svg" xmlns:xlink="http://www.w3.org/1999/xlink" width="100" zoomAndPan="magnify" viewBox="0 0 75 74.999997" height="100" preserveAspectRatio="xMidYMid meet"><defs><clipPath id="35372a88e2"><path d="M 37 43 L 65 43 L 65 72.859375 L 37 72.859375 Z M 37 43 " clip-rule="nonzero"></path></clipPath><clipPath id="2721435566"><path d="M 37 56 L 64 56 L 64 72.859375 L 37 72.859375 Z M 37 56 " clip-rule="nonzero"></path></clipPath><clipPath id="c980c973e5"><path d="M 37 43 L 65 43 L 65 72.859375 L 37 72.859375 Z M 37 43 " clip-rule="nonzero"></path></clipPath><clipPath id="32fd20fccb"><path d="M 56 22 L 66.871094 22 L 66.871094 40 L 56 40 Z M 56 22 " clip-rule="nonzero"></path></clipPath><clipPath id="56acf95557"><path d="M 56 24 L 66.871094 24 L 66.871094 40 L 56 40 Z M 56 24 " clip-rule="nonzero"></path></clipPath><clipPath id="abf9354993"><path d="M 56 22 L 66.871094 22 L 66.871094 40 L 56 40 Z M 56 22 " clip-rule="nonzero"></path></clipPath><clipPath id="53d0258b8b"><path d="M 8.371094 52 L 22 52 L 22 57 L 8.371094 57 Z M 8.371094 52 " clip-rule="nonzero"></path></clipPath><clipPath id="4160610cac"><path d="M 8.371094 52 L 22 52 L 22 57 L 8.371094 57 Z M 8.371094 52 " clip-rule="nonzero"></path></clipPath><clipPath id="71ec3a303e"><path d="M 11 61 L 25 61 L 25 72.859375 L 11 72.859375 Z M 11 61 " clip-rule="nonzero"></path></clipPath><clipPath id="6bae881912"><path d="M 12 62 L 18 62 L 18 72.859375 L 12 72.859375 Z M 12 62 " clip-rule="nonzero"></path></clipPath><clipPath id="776d43a748"><path d="M 11 62 L 25 62 L 25 72.859375 L 11 72.859375 Z M 11 62 " clip-rule="nonzero"></path></clipPath><clipPath id="06deddbc67"><path d="M 11 61 L 25 61 L 25 72.859375 L 11 72.859375 Z M 11 61 " clip-rule="nonzero"></path></clipPath></defs><rect x="-7.5" width="90" fill="#ffffff" y="-7.5" height="89.999996" fill-opacity="1"></rect><rect x="-7.5" width="90" fill="#ffffff" y="-7.5" height="89.999996" fill-opacity="1"></rect><path fill="#ffca9d" d="M 38.894531 25.957031 L 38.507812 30.878906 L 38.441406 31.722656 C 32.414062 32.746094 31.289062 28.039062 31.289062 28.039062 L 30.273438 22.136719 L 29.375 16.929688 C 29.375 16.929688 27.84375 14.007812 27.964844 11.949219 C 28.089844 9.894531 29.222656 9.582031 29.222656 9.582031 C 29.453125 8.0625 30.796875 8.277344 30.796875 8.277344 C 30.796875 8.277344 30.8125 7.859375 31.386719 7.722656 C 31.960938 7.582031 32.195312 8.363281 32.195312 8.363281 C 32.195312 8.363281 33.042969 7.660156 33.539062 8.351562 C 34.03125 9.042969 33.492188 12.910156 33.492188 12.910156 C 33.492188 12.910156 35.140625 11.289062 35.691406 12.148438 C 36.242188 13.003906 34.15625 16.253906 34.15625 16.253906 L 36.746094 24.546875 C 36.898438 25.035156 37.277344 25.421875 37.769531 25.582031 L 38.894531 25.960938 Z M 38.894531 25.957031 " fill-opacity="1" fill-rule="nonzero"></path><path fill="#f2b88c" d="M 38.507812 30.878906 L 38.441406 31.722656 C 32.414062 32.746094 31.289062 28.039062 31.289062 28.039062 L 30.273438 22.136719 C 31.261719 25.136719 33.613281 30.058594 38.511719 30.878906 Z M 38.507812 30.878906 " fill-opacity="1" fill-rule="nonzero"></path><path fill="#000000" d="M 36.824219 31.90625 C 34.675781 31.90625 33.351562 31.074219 32.578125 30.292969 C 31.546875 29.25 31.253906 28.0625 31.253906 28.050781 L 29.335938 16.9375 C 29.265625 16.796875 27.808594 13.949219 27.929688 11.945312 C 28.042969 10.027344 29.019531 9.609375 29.191406 9.550781 C 29.269531 9.070312 29.464844 8.710938 29.773438 8.484375 C 30.171875 8.199219 30.628906 8.21875 30.765625 8.230469 C 30.785156 8.121094 30.890625 7.800781 31.378906 7.683594 C 31.890625 7.5625 32.148438 8.125 32.214844 8.300781 C 32.335938 8.210938 32.707031 7.964844 33.074219 8.015625 C 33.273438 8.039062 33.4375 8.144531 33.570312 8.328125 C 34.023438 8.964844 33.625 12.171875 33.542969 12.808594 C 33.808594 12.5625 34.691406 11.792969 35.300781 11.863281 C 35.480469 11.882812 35.621094 11.96875 35.722656 12.125 C 36.265625 12.972656 34.367188 15.992188 34.195312 16.257812 L 36.78125 24.535156 C 36.929688 25.007812 37.300781 25.386719 37.777344 25.546875 L 38.902344 25.921875 C 38.921875 25.925781 38.929688 25.941406 38.929688 25.960938 L 38.480469 31.726562 C 38.480469 31.742188 38.464844 31.757812 38.449219 31.761719 C 37.859375 31.859375 37.320312 31.902344 36.824219 31.902344 Z M 30.628906 8.300781 C 30.4375 8.300781 30.109375 8.335938 29.816406 8.546875 C 29.519531 8.761719 29.332031 9.109375 29.257812 9.582031 C 29.257812 9.597656 29.246094 9.609375 29.230469 9.613281 C 29.222656 9.617188 28.121094 9.945312 28 11.949219 C 27.878906 13.972656 29.390625 16.878906 29.40625 16.910156 C 29.40625 16.910156 29.40625 16.914062 29.410156 16.921875 L 31.324219 28.03125 C 31.328125 28.042969 31.617188 29.210938 32.632812 30.242188 C 33.570312 31.1875 35.328125 32.207031 38.40625 31.691406 L 38.855469 25.980469 L 37.753906 25.617188 C 37.257812 25.449219 36.863281 25.054688 36.710938 24.554688 L 34.121094 16.261719 C 34.117188 16.253906 34.121094 16.242188 34.125 16.230469 C 34.144531 16.199219 36.191406 12.992188 35.660156 12.164062 C 35.570312 12.027344 35.453125 11.953125 35.296875 11.933594 C 34.617188 11.859375 33.53125 12.921875 33.519531 12.933594 C 33.507812 12.941406 33.492188 12.945312 33.476562 12.9375 C 33.460938 12.933594 33.453125 12.914062 33.457031 12.902344 C 33.460938 12.863281 33.988281 9.039062 33.511719 8.367188 C 33.390625 8.203125 33.242188 8.109375 33.066406 8.085938 C 32.660156 8.03125 32.226562 8.386719 32.222656 8.390625 C 32.210938 8.398438 32.199219 8.402344 32.1875 8.398438 C 32.175781 8.390625 32.164062 8.382812 32.164062 8.371094 C 32.160156 8.363281 31.929688 7.625 31.398438 7.753906 C 30.859375 7.882812 30.835938 8.269531 30.835938 8.273438 C 30.835938 8.285156 30.828125 8.292969 30.820312 8.300781 C 30.8125 8.308594 30.800781 8.3125 30.792969 8.308594 C 30.789062 8.308594 30.726562 8.300781 30.632812 8.300781 Z M 30.628906 8.300781 " fill-opacity="1" fill-rule="nonzero"></path><path fill="#f9eacc" d="M 50.464844 22.378906 C 45.765625 22.851562 41.320312 23.746094 37.289062 25.3125 L 37.777344 32.515625 L 47.773438 30.820312 Z M 50.464844 22.378906 " fill-opacity="1" fill-rule="nonzero"></path><path fill="#000000" d="M 37.777344 32.550781 C 37.769531 32.550781 37.761719 32.546875 37.753906 32.542969 C 37.746094 32.535156 37.742188 32.527344 37.742188 32.515625 L 37.25 25.3125 C 37.25 25.296875 37.261719 25.28125 37.273438 25.277344 C 41.03125 23.816406 45.34375 22.859375 50.460938 22.339844 C 50.472656 22.339844 50.488281 22.34375 50.496094 22.355469 C 50.503906 22.363281 50.503906 22.378906 50.5 22.390625 L 47.808594 30.832031 C 47.804688 30.847656 47.792969 30.855469 47.777344 30.859375 L 37.78125 32.550781 C 37.78125 32.550781 37.777344 32.550781 37.777344 32.550781 Z M 37.328125 25.335938 L 37.8125 32.472656 L 47.746094 30.789062 L 50.414062 22.421875 C 45.339844 22.9375 41.058594 23.890625 37.328125 25.335938 Z M 37.328125 25.335938 " fill-opacity="1" fill-rule="nonzero"></path><path fill="#f9eacc" d="M 43.296875 50.757812 C 49.679688 52.542969 56.066406 52.542969 62.449219 50.757812 C 62.449219 50.757812 62.601562 30.015625 60.449219 24.21875 C 59.554688 22.988281 58.207031 22.183594 56.722656 21.953125 C 56.332031 21.894531 55.925781 21.875 55.519531 21.898438 L 51.917969 22.101562 C 51.425781 22.132812 50.9375 22.222656 50.472656 22.375 C 50.472656 22.375 50.46875 22.375 50.464844 22.375 C 50.066406 22.507812 49.683594 22.679688 49.324219 22.894531 L 49.125 23.015625 C 46.574219 24.535156 44.933594 27.195312 44.726562 30.132812 L 44.597656 32.015625 Z M 43.296875 50.757812 " fill-opacity="1" fill-rule="nonzero"></path><path fill="#f4deb8" d="M 60.453125 24.21875 C 59.902344 23.464844 59.179688 22.871094 58.367188 22.472656 C 59.644531 26.394531 60.054688 35.78125 60.1875 42.1875 C 60.269531 46.230469 57.144531 49.636719 53.070312 49.921875 C 49.847656 50.148438 46.628906 49.917969 43.40625 49.234375 L 43.300781 50.757812 C 49.683594 52.542969 56.066406 52.542969 62.449219 50.757812 C 62.449219 50.757812 62.601562 30.015625 60.453125 24.21875 Z M 60.453125 24.21875 " fill-opacity="1" fill-rule="nonzero"></path><path fill="#54443c" d="M 47.085938 8.242188 C 46.777344 8.628906 46.519531 9.101562 46.332031 9.667969 C 46.179688 10.132812 46.058594 10.605469 45.972656 11.082031 C 45.726562 10.996094 45.445312 10.777344 45.183594 10.292969 C 44.613281 9.238281 46.125 7.644531 46.722656 7.070312 C 46.800781 7.699219 47.085938 8.238281 47.085938 8.238281 Z M 47.085938 8.242188 " fill-opacity="1" fill-rule="nonzero"></path><path fill="#54443c" d="M 57.585938 13.769531 C 57.269531 14.191406 54.972656 13.660156 54.972656 13.660156 C 53.757812 12.183594 53.6875 10.628906 53.6875 10.628906 C 50.589844 11.0625 48.410156 9.480469 47.523438 8.675781 C 47.238281 8.417969 47.085938 8.238281 47.085938 8.238281 C 47.085938 8.238281 46.800781 7.699219 46.722656 7.070312 C 46.652344 6.46875 46.773438 5.785156 47.523438 5.410156 C 49.054688 4.644531 55.296875 3.898438 57.332031 7.261719 C 59.367188 10.625 58.175781 12.996094 57.585938 13.769531 Z M 57.585938 13.769531 " fill-opacity="1" fill-rule="nonzero"></path><path fill="#000000" d="M 52.875 52.128906 C 49.671875 52.128906 46.46875 51.683594 43.289062 50.792969 C 43.273438 50.789062 43.257812 50.773438 43.261719 50.757812 L 44.691406 30.132812 C 44.707031 29.894531 44.734375 29.652344 44.769531 29.414062 C 44.773438 29.390625 44.792969 29.378906 44.8125 29.382812 C 44.832031 29.382812 44.847656 29.402344 44.84375 29.421875 C 44.808594 29.660156 44.78125 29.898438 44.765625 30.136719 L 43.339844 50.730469 C 49.667969 52.492188 56.085938 52.492188 62.414062 50.730469 C 62.417969 49.855469 62.503906 29.871094 60.417969 24.238281 C 59.542969 23.039062 58.195312 22.21875 56.722656 21.992188 C 56.328125 21.929688 55.929688 21.910156 55.527344 21.933594 L 51.925781 22.136719 C 51.429688 22.167969 50.945312 22.257812 50.488281 22.410156 C 50.480469 22.410156 50.476562 22.410156 50.472656 22.410156 C 50.453125 22.417969 50.4375 22.40625 50.429688 22.386719 C 50.425781 22.367188 50.4375 22.34375 50.457031 22.339844 C 50.460938 22.339844 50.460938 22.339844 50.464844 22.339844 C 50.929688 22.1875 51.417969 22.09375 51.917969 22.0625 L 55.523438 21.855469 C 55.929688 21.835938 56.335938 21.851562 56.734375 21.914062 C 58.230469 22.148438 59.597656 22.976562 60.484375 24.195312 C 60.484375 24.199219 60.488281 24.199219 60.488281 24.207031 C 62.617188 29.941406 62.492188 50.550781 62.488281 50.757812 C 62.488281 50.773438 62.476562 50.789062 62.460938 50.792969 C 59.28125 51.683594 56.078125 52.125 52.875 52.125 Z M 52.875 52.128906 " fill-opacity="1" fill-rule="nonzero"></path><path fill="#ffca9d" d="M 50.464844 22.378906 C 50.464844 22.390625 50.46875 22.40625 50.472656 22.417969 C 50.792969 24.25 52.855469 25.226562 54.519531 24.359375 C 55.5 23.847656 56.222656 23.035156 56.726562 21.957031 C 56.332031 21.894531 55.929688 21.875 55.523438 21.898438 L 51.921875 22.105469 C 51.425781 22.132812 50.941406 22.226562 50.472656 22.378906 C 50.472656 22.378906 50.46875 22.378906 50.46875 22.378906 Z M 50.464844 22.378906 " fill-opacity="1" fill-rule="nonzero"></path><path fill="#000000" d="M 53.214844 24.71875 C 52.789062 24.71875 52.359375 24.621094 51.957031 24.421875 C 51.144531 24.027344 50.589844 23.300781 50.4375 22.425781 C 50.433594 22.40625 50.429688 22.394531 50.429688 22.382812 C 50.429688 22.363281 50.441406 22.347656 50.457031 22.34375 C 50.457031 22.34375 50.460938 22.34375 50.464844 22.339844 C 50.925781 22.1875 51.417969 22.097656 51.917969 22.066406 L 55.519531 21.859375 C 55.925781 21.835938 56.335938 21.855469 56.730469 21.917969 C 56.742188 21.917969 56.753906 21.929688 56.757812 21.9375 C 56.765625 21.949219 56.765625 21.960938 56.757812 21.96875 C 56.246094 23.074219 55.5 23.890625 54.539062 24.390625 C 54.121094 24.609375 53.667969 24.714844 53.214844 24.714844 Z M 50.507812 22.40625 C 50.660156 23.261719 51.195312 23.96875 51.988281 24.355469 C 52.792969 24.75 53.710938 24.738281 54.503906 24.324219 C 55.4375 23.839844 56.164062 23.050781 56.671875 21.984375 C 56.292969 21.929688 55.910156 21.910156 55.523438 21.933594 L 51.925781 22.140625 C 51.4375 22.167969 50.960938 22.257812 50.511719 22.40625 Z M 50.507812 22.40625 " fill-opacity="1" fill-rule="nonzero"></path><path fill="#000000" d="M 56.921875 13.96875 C 56.148438 13.96875 55.027344 13.714844 54.964844 13.699219 C 54.957031 13.699219 54.945312 13.691406 54.941406 13.683594 C 53.84375 12.347656 53.671875 10.933594 53.652344 10.671875 C 50.515625 11.09375 48.304688 9.441406 47.496094 8.707031 C 47.210938 8.449219 47.0625 8.273438 47.058594 8.265625 C 47.050781 8.253906 46.761719 7.703125 46.6875 7.074219 C 46.589844 6.28125 46.875 5.691406 47.507812 5.378906 C 48.328125 4.964844 50.328125 4.617188 52.242188 4.75 C 53.964844 4.871094 56.25 5.398438 57.367188 7.242188 C 59.570312 10.890625 57.964844 13.335938 57.621094 13.792969 C 57.519531 13.921875 57.253906 13.96875 56.921875 13.96875 Z M 54.992188 13.625 C 55.636719 13.773438 57.308594 14.070312 57.558594 13.746094 C 57.898438 13.300781 59.480469 10.886719 57.300781 7.285156 C 55.316406 4.011719 49.140625 4.644531 47.542969 5.449219 C 46.933594 5.75 46.671875 6.296875 46.765625 7.066406 C 46.835938 7.679688 47.117188 8.214844 47.121094 8.222656 C 47.121094 8.222656 47.273438 8.398438 47.550781 8.648438 C 48.355469 9.378906 50.558594 11.027344 53.683594 10.589844 C 53.691406 10.589844 53.703125 10.59375 53.710938 10.597656 C 53.71875 10.605469 53.726562 10.617188 53.726562 10.628906 C 53.726562 10.644531 53.8125 12.179688 54.992188 13.625 Z M 54.992188 13.625 " fill-opacity="1" fill-rule="nonzero"></path><path fill="#000000" d="M 45.972656 11.121094 C 45.972656 11.121094 45.964844 11.121094 45.960938 11.117188 C 45.65625 11.011719 45.382812 10.742188 45.152344 10.308594 C 44.578125 9.246094 46.042969 7.671875 46.699219 7.042969 C 46.710938 7.03125 46.722656 7.027344 46.738281 7.035156 C 46.75 7.039062 46.761719 7.050781 46.765625 7.066406 C 46.835938 7.683594 47.121094 8.21875 47.121094 8.222656 C 47.128906 8.238281 47.128906 8.253906 47.117188 8.265625 C 46.800781 8.664062 46.550781 9.136719 46.371094 9.679688 C 46.222656 10.128906 46.101562 10.601562 46.011719 11.089844 C 46.011719 11.101562 46.003906 11.109375 45.992188 11.117188 C 45.988281 11.121094 45.980469 11.121094 45.972656 11.121094 Z M 46.695312 7.152344 C 46.03125 7.800781 44.683594 9.285156 45.222656 10.273438 C 45.433594 10.664062 45.675781 10.917969 45.945312 11.027344 C 46.03125 10.554688 46.152344 10.089844 46.296875 9.65625 C 46.476562 9.113281 46.726562 8.636719 47.042969 8.234375 C 46.988281 8.128906 46.773438 7.675781 46.695312 7.152344 Z M 46.695312 7.152344 " fill-opacity="1" fill-rule="nonzero"></path><path fill="#ffca9d" d="M 45.972656 11.082031 C 46.058594 10.605469 46.179688 10.132812 46.332031 9.667969 C 46.519531 9.101562 46.777344 8.628906 47.085938 8.238281 C 47.085938 8.238281 47.238281 8.417969 47.523438 8.675781 C 48.410156 9.480469 50.589844 11.0625 53.6875 10.628906 C 53.6875 10.628906 53.757812 12.183594 54.972656 13.660156 C 54.972656 13.660156 55.636719 11.980469 57.175781 12.304688 C 58.714844 12.628906 58.640625 15.296875 57.285156 15.808594 C 56.8125 15.988281 56.441406 16.066406 56.160156 16.097656 L 56.175781 16.394531 C 56.125 18.441406 52.953125 20.585938 51.433594 20.761719 C 51.121094 20.796875 50.8125 20.800781 50.511719 20.773438 C 48.683594 20.609375 47.085938 19.351562 46.480469 17.570312 C 45.863281 15.757812 45.554688 13.382812 45.972656 11.082031 Z M 45.972656 11.082031 " fill-opacity="1" fill-rule="nonzero"></path><path fill="#000000" d="M 56.175781 16.433594 C 56.15625 16.433594 56.136719 16.417969 56.136719 16.398438 L 56.121094 16.097656 C 56.121094 16.078125 56.136719 16.0625 56.15625 16.058594 C 56.484375 16.023438 56.859375 15.925781 57.269531 15.773438 C 58.003906 15.496094 58.328125 14.578125 58.269531 13.816406 C 58.21875 13.207031 57.90625 12.5 57.167969 12.34375 C 55.679688 12.03125 55.015625 13.660156 55.007812 13.675781 C 55 13.695312 54.976562 13.703125 54.957031 13.699219 C 54.9375 13.6875 54.925781 13.667969 54.9375 13.648438 C 54.941406 13.628906 55.632812 11.9375 57.183594 12.269531 C 57.964844 12.433594 58.296875 13.171875 58.347656 13.808594 C 58.40625 14.601562 58.066406 15.554688 57.296875 15.84375 C 56.898438 15.996094 56.527344 16.09375 56.199219 16.128906 L 56.214844 16.394531 C 56.214844 16.414062 56.199219 16.433594 56.175781 16.433594 Z M 56.175781 16.433594 " fill-opacity="1" fill-rule="nonzero"></path><path fill="#ffca9d" d="M 56.457031 22.050781 L 50.738281 22.535156 Z M 56.457031 22.050781 " fill-opacity="1" fill-rule="nonzero"></path><path fill="#ffca9d" d="M 50.738281 22.535156 L 50.511719 20.777344 C 50.8125 20.804688 51.121094 20.800781 51.433594 20.765625 C 52.949219 20.589844 56.125 18.441406 56.175781 16.398438 L 56.457031 22.050781 " fill-opacity="1" fill-rule="nonzero"></path><path fill="#000000" d="M 50.710938 22.34375 C 50.691406 22.34375 50.675781 22.332031 50.671875 22.308594 L 50.472656 20.78125 C 50.46875 20.769531 50.472656 20.757812 50.480469 20.75 C 50.492188 20.742188 50.5 20.738281 50.515625 20.738281 C 50.816406 20.765625 51.125 20.761719 51.429688 20.726562 C 52.945312 20.550781 56.085938 18.433594 56.136719 16.394531 C 56.136719 16.375 56.15625 16.355469 56.175781 16.355469 C 56.195312 16.355469 56.214844 16.371094 56.214844 16.390625 L 56.488281 21.914062 C 56.488281 21.9375 56.472656 21.953125 56.453125 21.957031 C 56.429688 21.960938 56.410156 21.941406 56.410156 21.917969 L 56.15625 16.835938 C 55.71875 18.765625 52.867188 20.636719 51.4375 20.800781 C 51.144531 20.835938 50.847656 20.839844 50.554688 20.816406 L 50.746094 22.300781 C 50.75 22.320312 50.734375 22.339844 50.710938 22.34375 C 50.710938 22.34375 50.710938 22.34375 50.707031 22.34375 Z M 50.710938 22.34375 " fill-opacity="1" fill-rule="nonzero"></path><path fill="#000000" d="M 50.914062 20.832031 C 50.777344 20.832031 50.640625 20.828125 50.507812 20.816406 C 48.648438 20.648438 47.054688 19.382812 46.441406 17.585938 C 45.742188 15.523438 45.554688 13.148438 45.933594 11.078125 C 46.023438 10.589844 46.144531 10.113281 46.292969 9.65625 C 46.476562 9.105469 46.734375 8.621094 47.054688 8.21875 C 47.0625 8.207031 47.074219 8.203125 47.085938 8.203125 C 47.09375 8.199219 47.109375 8.207031 47.117188 8.214844 C 47.117188 8.21875 47.269531 8.398438 47.550781 8.652344 C 48.351562 9.382812 50.558594 11.03125 53.679688 10.59375 C 53.691406 10.589844 53.699219 10.59375 53.710938 10.601562 C 53.71875 10.605469 53.722656 10.617188 53.722656 10.628906 C 53.722656 10.644531 53.808594 12.1875 55 13.636719 C 55.011719 13.652344 55.011719 13.679688 54.992188 13.691406 C 54.976562 13.707031 54.953125 13.703125 54.9375 13.6875 C 53.839844 12.351562 53.671875 10.9375 53.648438 10.675781 C 50.515625 11.097656 48.304688 9.441406 47.496094 8.707031 C 47.28125 8.515625 47.144531 8.367188 47.085938 8.300781 C 46.78125 8.691406 46.539062 9.15625 46.367188 9.679688 C 46.214844 10.132812 46.097656 10.605469 46.007812 11.089844 C 45.632812 13.152344 45.816406 15.507812 46.511719 17.5625 C 47.113281 19.328125 48.683594 20.574219 50.511719 20.738281 C 50.816406 20.765625 51.125 20.761719 51.425781 20.726562 C 52.859375 20.5625 55.871094 18.585938 56.117188 16.597656 C 56.121094 16.574219 56.136719 16.558594 56.164062 16.5625 C 56.183594 16.566406 56.199219 16.582031 56.195312 16.605469 C 55.949219 18.628906 52.890625 20.636719 51.433594 20.804688 C 51.261719 20.824219 51.085938 20.832031 50.910156 20.832031 Z M 50.914062 20.832031 " fill-opacity="1" fill-rule="nonzero"></path><path fill="#000000" d="M 51.804688 13.246094 C 51.804688 13.4375 51.769531 13.597656 51.695312 13.730469 C 51.625 13.863281 51.539062 13.933594 51.4375 13.933594 C 51.335938 13.933594 51.25 13.863281 51.175781 13.730469 C 51.105469 13.597656 51.066406 13.4375 51.066406 13.246094 C 51.066406 13.058594 51.105469 12.894531 51.175781 12.761719 C 51.25 12.628906 51.335938 12.5625 51.4375 12.5625 C 51.539062 12.5625 51.625 12.628906 51.695312 12.761719 C 51.769531 12.894531 51.804688 13.058594 51.804688 13.246094 Z M 51.804688 13.246094 " fill-opacity="1" fill-rule="nonzero"></path><path fill="#000000" d="M 48.027344 13.402344 C 48.027344 13.589844 47.992188 13.753906 47.917969 13.886719 C 47.847656 14.019531 47.757812 14.085938 47.65625 14.085938 C 47.554688 14.085938 47.46875 14.019531 47.398438 13.886719 C 47.324219 13.753906 47.289062 13.589844 47.289062 13.402344 C 47.289062 13.210938 47.324219 13.050781 47.398438 12.917969 C 47.46875 12.785156 47.554688 12.714844 47.65625 12.714844 C 47.757812 12.714844 47.847656 12.785156 47.917969 12.917969 C 47.992188 13.050781 48.027344 13.210938 48.027344 13.402344 Z M 48.027344 13.402344 " fill-opacity="1" fill-rule="nonzero"></path><path fill="#000000" d="M 49.644531 16.992188 C 49.507812 16.992188 49.335938 16.949219 49.136719 16.828125 C 48.53125 16.460938 49.28125 14.539062 49.441406 14.160156 C 49.464844 14.101562 49.53125 14.074219 49.589844 14.097656 C 49.648438 14.121094 49.675781 14.1875 49.652344 14.246094 C 49.292969 15.117188 48.933594 16.4375 49.253906 16.632812 C 49.703125 16.90625 49.894531 16.671875 49.902344 16.664062 C 49.941406 16.613281 50.011719 16.605469 50.0625 16.640625 C 50.113281 16.675781 50.121094 16.746094 50.085938 16.796875 C 50.085938 16.800781 49.9375 16.992188 49.644531 16.992188 Z M 49.644531 16.992188 " fill-opacity="1" fill-rule="nonzero"></path><path fill="#000000" d="M 50.089844 18.894531 C 49.550781 18.894531 48.90625 18.734375 48.304688 18.175781 C 48.257812 18.132812 48.253906 18.0625 48.296875 18.015625 C 48.339844 17.972656 48.414062 17.96875 48.457031 18.011719 C 49.726562 19.1875 51.152344 18.453125 51.210938 18.421875 C 51.265625 18.390625 51.332031 18.410156 51.363281 18.464844 C 51.394531 18.523438 51.375 18.589844 51.316406 18.621094 C 51.308594 18.625 50.789062 18.894531 50.089844 18.894531 Z M 50.089844 18.894531 " fill-opacity="1" fill-rule="nonzero"></path><path fill="#000000" d="M 50.730469 12.253906 C 50.695312 12.253906 50.65625 12.238281 50.636719 12.207031 C 50.597656 12.152344 50.609375 12.082031 50.664062 12.042969 C 51.5 11.457031 52.339844 11.925781 52.375 11.945312 C 52.429688 11.976562 52.449219 12.046875 52.417969 12.105469 C 52.386719 12.160156 52.3125 12.179688 52.257812 12.148438 C 52.226562 12.128906 51.511719 11.738281 50.800781 12.234375 C 50.78125 12.25 50.757812 12.253906 50.734375 12.253906 Z M 50.730469 12.253906 " fill-opacity="1" fill-rule="nonzero"></path><path fill="#000000" d="M 48.617188 11.984375 C 48.585938 11.984375 48.554688 11.972656 48.53125 11.945312 C 47.941406 11.3125 47.15625 11.550781 47.125 11.5625 C 47.0625 11.582031 46.996094 11.546875 46.976562 11.488281 C 46.957031 11.425781 46.988281 11.359375 47.050781 11.339844 C 47.089844 11.328125 48.007812 11.042969 48.703125 11.789062 C 48.746094 11.835938 48.746094 11.910156 48.695312 11.953125 C 48.675781 11.976562 48.644531 11.984375 48.617188 11.984375 Z M 48.617188 11.984375 " fill-opacity="1" fill-rule="nonzero"></path><path fill="#a66537" d="M 46.179688 65.179688 C 45.519531 65.671875 44.191406 65.3125 43.15625 64.894531 C 42.351562 64.578125 41.722656 64.226562 41.722656 64.226562 C 41.722656 64.226562 36.25 65.828125 32.132812 65.5 C 30.898438 65.402344 29.597656 65.179688 28.378906 64.914062 C 25.539062 64.300781 23.152344 63.464844 23.152344 63.464844 C 23.152344 63.464844 20.261719 65.621094 19.453125 63.851562 C 18.644531 62.078125 21.191406 60.308594 21.191406 60.308594 C 19.40625 53.796875 21.71875 45.371094 22.261719 43.570312 C 23.648438 44.738281 25.820312 45.597656 27.277344 45.972656 C 29.746094 46.613281 38.535156 46.164062 39.980469 45.636719 C 40.121094 45.582031 40.28125 45.515625 40.464844 45.433594 C 41.28125 45.058594 42.46875 44.40625 43.476562 43.824219 C 44.476562 45.414062 44.996094 48.046875 45.25 50.808594 C 45.734375 56.058594 45.25 61.789062 45.25 61.789062 C 47.050781 62.953125 47.351562 64.304688 46.175781 65.179688 Z M 46.179688 65.179688 " fill-opacity="1" fill-rule="nonzero"></path><path fill="#93572e" d="M 46.179688 65.179688 C 45.519531 65.671875 44.191406 65.3125 43.15625 64.894531 C 42.351562 64.578125 41.722656 64.226562 41.722656 64.226562 C 41.722656 64.226562 36.25 65.828125 32.132812 65.5 C 30.898438 65.402344 29.597656 65.179688 28.378906 64.914062 C 28.519531 64.882812 38.570312 62.328125 41.253906 59.71875 C 43.332031 57.695312 41.445312 49.234375 40.464844 45.433594 C 41.28125 45.058594 42.46875 44.40625 43.480469 43.824219 C 44.476562 45.414062 45 48.046875 45.253906 50.808594 C 45.734375 56.058594 45.253906 61.789062 45.253906 61.789062 C 47.050781 62.953125 47.351562 64.304688 46.179688 65.179688 Z M 46.179688 65.179688 " fill-opacity="1" fill-rule="nonzero"></path><path fill="#000000" d="M 33.292969 65.625 C 32.894531 65.625 32.503906 65.613281 32.125 65.582031 C 28.246094 65.269531 23.644531 63.71875 23.164062 63.554688 C 22.902344 63.742188 21.292969 64.863281 20.1875 64.585938 C 19.820312 64.492188 19.550781 64.257812 19.378906 63.882812 C 18.605469 62.183594 20.746094 60.535156 21.097656 60.273438 C 19.328125 53.710938 21.691406 45.191406 22.183594 43.546875 L 22.21875 43.429688 L 22.3125 43.507812 C 23.699219 44.675781 25.867188 45.527344 27.296875 45.898438 C 29.746094 46.53125 38.472656 46.101562 39.953125 45.558594 C 40.789062 45.253906 42.496094 44.296875 43.4375 43.753906 L 43.503906 43.714844 L 43.546875 43.78125 C 44.433594 45.195312 45.03125 47.558594 45.328125 50.800781 C 45.785156 55.746094 45.378906 61.183594 45.332031 61.746094 C 46.355469 62.417969 46.929688 63.183594 46.957031 63.90625 C 46.972656 64.410156 46.71875 64.871094 46.222656 65.238281 C 45.527344 65.757812 44.15625 65.378906 43.125 64.96875 C 42.421875 64.6875 41.847656 64.382812 41.710938 64.3125 C 41.296875 64.429688 37.003906 65.625 33.289062 65.625 Z M 23.140625 63.375 L 23.179688 63.390625 C 23.230469 63.40625 28.082031 65.101562 32.140625 65.425781 C 36.191406 65.746094 41.648438 64.167969 41.703125 64.152344 L 41.734375 64.144531 L 41.765625 64.160156 C 41.765625 64.160156 42.398438 64.507812 43.1875 64.824219 C 44.179688 65.21875 45.492188 65.589844 46.132812 65.117188 C 46.582031 64.78125 46.8125 64.367188 46.796875 63.914062 C 46.777344 63.238281 46.210938 62.503906 45.207031 61.855469 L 45.167969 61.832031 L 45.171875 61.78125 C 45.179688 61.726562 45.648438 56 45.171875 50.816406 C 44.882812 47.648438 44.304688 45.332031 43.453125 43.929688 C 42.492188 44.484375 40.835938 45.410156 40.007812 45.710938 C 38.515625 46.253906 29.726562 46.691406 27.257812 46.050781 C 25.84375 45.683594 23.714844 44.855469 22.304688 43.707031 C 21.746094 45.601562 19.519531 53.898438 21.269531 60.285156 L 21.285156 60.339844 L 21.238281 60.371094 C 21.214844 60.390625 18.753906 62.128906 19.527344 63.820312 C 19.675781 64.144531 19.914062 64.351562 20.230469 64.429688 C 21.332031 64.707031 23.089844 63.414062 23.105469 63.398438 Z M 23.140625 63.375 " fill-opacity="1" fill-rule="nonzero"></path><path fill="#93552b" d="M 43.582031 43.765625 C 43.546875 43.785156 43.515625 43.804688 43.480469 43.824219 C 42.246094 44.535156 40.746094 45.355469 39.980469 45.636719 C 38.535156 46.164062 29.75 46.617188 27.277344 45.976562 C 25.820312 45.597656 23.648438 44.738281 22.261719 43.570312 C 21.292969 42.757812 20.703125 41.792969 21 40.738281 C 21.800781 37.902344 25.140625 37.722656 26.59375 37.78125 C 25.984375 38.15625 25.375 38.59375 24.765625 39.09375 C 24.203125 39.558594 24.214844 40.417969 24.789062 40.875 C 26.636719 42.355469 31.351562 44.660156 40.648438 41.023438 C 41.324219 40.757812 41.453125 39.867188 40.882812 39.417969 C 40.203125 38.886719 39.523438 38.414062 38.84375 38.003906 C 41.484375 38.109375 43.675781 38.277344 44.199219 38.554688 C 44.582031 38.75 44.851562 39.109375 45.039062 39.527344 C 45.734375 41.085938 45.066406 42.910156 43.582031 43.765625 Z M 43.582031 43.765625 " fill-opacity="1" fill-rule="nonzero"></path><path fill="#774422" d="M 45.039062 39.527344 C 44.851562 39.105469 44.582031 38.75 44.203125 38.550781 C 44.132812 38.515625 44.035156 38.480469 43.910156 38.449219 C 44.4375 39.949219 43.765625 41.628906 42.359375 42.441406 C 42.324219 42.460938 42.289062 42.484375 42.253906 42.5 C 41.019531 43.210938 39.523438 44.035156 38.753906 44.3125 C 37.308594 44.839844 28.523438 45.292969 26.050781 44.652344 C 24.667969 44.292969 22.640625 43.5 21.25 42.421875 C 21.484375 42.828125 21.835938 43.214844 22.261719 43.570312 C 23.648438 44.738281 25.820312 45.597656 27.277344 45.976562 C 29.746094 46.617188 38.535156 46.164062 39.980469 45.636719 C 40.746094 45.355469 42.246094 44.535156 43.480469 43.824219 C 43.515625 43.804688 43.546875 43.785156 43.582031 43.765625 C 45.066406 42.910156 45.734375 41.085938 45.039062 39.527344 Z M 45.039062 39.527344 " fill-opacity="1" fill-rule="nonzero"></path><path fill="#000000" d="M 31.636719 46.371094 C 29.789062 46.371094 28.128906 46.28125 27.257812 46.054688 C 25.808594 45.679688 23.617188 44.820312 22.207031 43.632812 C 21.078125 42.683594 20.644531 41.703125 20.921875 40.714844 C 21.738281 37.8125 25.164062 37.640625 26.597656 37.699219 L 26.867188 37.710938 L 26.640625 37.851562 C 26.035156 38.222656 25.421875 38.660156 24.820312 39.15625 C 24.574219 39.359375 24.433594 39.65625 24.433594 39.976562 C 24.4375 40.304688 24.585938 40.605469 24.839844 40.8125 C 26.816406 42.394531 31.496094 44.515625 40.617188 40.945312 C 40.90625 40.832031 41.105469 40.582031 41.152344 40.28125 C 41.195312 39.972656 41.078125 39.675781 40.832031 39.480469 C 40.160156 38.957031 39.476562 38.484375 38.804688 38.074219 L 38.53125 37.910156 L 38.847656 37.921875 C 42 38.046875 43.761719 38.230469 44.242188 38.480469 C 44.605469 38.671875 44.898438 39.011719 45.113281 39.496094 C 45.820312 41.070312 45.179688 42.941406 43.625 43.835938 C 43.605469 43.847656 43.589844 43.855469 43.574219 43.867188 C 43.554688 43.875 43.539062 43.886719 43.519531 43.894531 C 42.574219 44.441406 40.859375 45.402344 40.007812 45.710938 C 39.042969 46.066406 35.023438 46.371094 31.636719 46.371094 Z M 26.183594 37.855469 C 24.632812 37.855469 21.796875 38.214844 21.082031 40.761719 C 20.824219 41.679688 21.238281 42.601562 22.316406 43.507812 C 23.703125 44.675781 25.867188 45.523438 27.296875 45.898438 C 29.746094 46.53125 38.472656 46.097656 39.953125 45.558594 C 40.789062 45.253906 42.492188 44.296875 43.4375 43.753906 C 43.457031 43.742188 43.472656 43.734375 43.488281 43.726562 C 43.503906 43.714844 43.523438 43.703125 43.542969 43.695312 C 45.023438 42.839844 45.632812 41.0625 44.960938 39.5625 C 44.761719 39.113281 44.492188 38.800781 44.160156 38.625 C 43.726562 38.398438 42.042969 38.222656 39.15625 38.097656 C 39.746094 38.472656 40.34375 38.890625 40.929688 39.351562 C 41.222656 39.582031 41.367188 39.9375 41.3125 40.304688 C 41.257812 40.667969 41.019531 40.964844 40.675781 41.097656 C 31.476562 44.699219 26.738281 42.542969 24.734375 40.9375 C 24.441406 40.703125 24.269531 40.351562 24.265625 39.980469 C 24.261719 39.609375 24.425781 39.265625 24.710938 39.027344 C 25.242188 38.59375 25.78125 38.199219 26.320312 37.855469 C 26.273438 37.855469 26.226562 37.855469 26.179688 37.855469 Z M 26.183594 37.855469 " fill-opacity="1" fill-rule="nonzero"></path><path fill="#f9eacc" d="M 40.648438 41.023438 C 31.355469 44.660156 26.636719 42.355469 24.789062 40.875 C 24.21875 40.417969 24.203125 39.554688 24.765625 39.089844 C 25.378906 38.589844 25.988281 38.15625 26.597656 37.78125 C 30.691406 35.261719 34.777344 35.535156 38.847656 38.003906 C 39.523438 38.414062 40.203125 38.886719 40.882812 39.414062 C 41.453125 39.863281 41.324219 40.757812 40.648438 41.023438 Z M 40.648438 41.023438 " fill-opacity="1" fill-rule="nonzero"></path><path fill="#fcf4e6" d="M 34.238281 36.539062 C 34.046875 36.527344 33.859375 36.523438 33.667969 36.523438 C 31.636719 36.523438 29.609375 37.132812 27.652344 38.339844 C 27.03125 38.71875 26.40625 39.171875 25.785156 39.675781 C 25.457031 39.945312 25.269531 40.324219 25.242188 40.742188 C 25.242188 40.753906 25.242188 40.765625 25.242188 40.777344 C 25.164062 40.71875 25.085938 40.660156 25.011719 40.601562 C 24.820312 40.445312 24.707031 40.21875 24.707031 39.972656 C 24.707031 39.734375 24.808594 39.511719 24.992188 39.359375 C 25.585938 38.875 26.191406 38.441406 26.78125 38.078125 C 28.625 36.941406 30.527344 36.367188 32.425781 36.367188 C 33.023438 36.367188 33.628906 36.421875 34.238281 36.539062 Z M 34.238281 36.539062 " fill-opacity="1" fill-rule="nonzero"></path><path fill="#fcf4e6" d="M 34.238281 36.539062 C 34.046875 36.527344 33.859375 36.523438 33.667969 36.523438 C 31.636719 36.523438 29.609375 37.132812 27.652344 38.339844 C 27.03125 38.71875 26.40625 39.171875 25.785156 39.675781 C 25.457031 39.945312 25.269531 40.324219 25.242188 40.742188 C 25.242188 40.753906 25.242188 40.765625 25.242188 40.777344 C 25.164062 40.71875 25.085938 40.660156 25.011719 40.601562 C 24.820312 40.445312 24.707031 40.21875 24.707031 39.972656 C 24.707031 39.734375 24.808594 39.511719 24.992188 39.359375 C 25.585938 38.875 26.191406 38.441406 26.78125 38.078125 C 28.625 36.941406 30.527344 36.367188 32.425781 36.367188 C 33.023438 36.367188 33.628906 36.421875 34.238281 36.539062 Z M 34.238281 36.539062 " fill-opacity="1" fill-rule="nonzero"></path><path fill="#efd4a5" d="M 40.882812 39.414062 C 40.203125 38.886719 39.523438 38.414062 38.847656 38.003906 C 38.191406 37.605469 37.535156 37.265625 36.878906 36.984375 C 36.925781 37.011719 36.972656 37.039062 37.015625 37.066406 C 37.695312 37.476562 38.375 37.949219 39.050781 38.480469 C 39.625 38.925781 39.496094 39.820312 38.816406 40.085938 C 32.207031 42.671875 27.914062 42.253906 25.320312 41.261719 C 27.46875 42.699219 32.136719 44.351562 40.648438 41.023438 C 41.324219 40.757812 41.453125 39.863281 40.882812 39.414062 Z M 40.882812 39.414062 " fill-opacity="1" fill-rule="nonzero"></path><path fill="#000000" d="M 31.65625 43.058594 C 28.121094 43.058594 25.9375 41.902344 24.738281 40.9375 C 24.441406 40.703125 24.273438 40.351562 24.269531 39.980469 C 24.265625 39.609375 24.429688 39.265625 24.714844 39.027344 C 25.324219 38.53125 25.941406 38.085938 26.550781 37.710938 C 30.492188 35.285156 34.644531 35.363281 38.890625 37.933594 C 39.566406 38.34375 40.253906 38.824219 40.933594 39.351562 C 41.226562 39.582031 41.371094 39.9375 41.316406 40.304688 C 41.261719 40.667969 41.023438 40.964844 40.679688 41.097656 C 36.992188 42.539062 34.023438 43.058594 31.65625 43.058594 Z M 32.425781 36.085938 C 30.472656 36.085938 28.550781 36.675781 26.640625 37.851562 C 26.035156 38.222656 25.425781 38.660156 24.820312 39.15625 C 24.574219 39.359375 24.433594 39.65625 24.4375 39.976562 C 24.4375 40.304688 24.585938 40.605469 24.84375 40.8125 C 26.820312 42.394531 31.5 44.515625 40.617188 40.945312 C 40.90625 40.832031 41.105469 40.582031 41.152344 40.28125 C 41.199219 39.972656 41.078125 39.675781 40.832031 39.480469 C 40.160156 38.957031 39.476562 38.484375 38.804688 38.074219 C 36.617188 36.75 34.503906 36.089844 32.425781 36.089844 Z M 32.425781 36.085938 " fill-opacity="1" fill-rule="nonzero"></path><path fill="#000000" d="M 30.300781 62.136719 C 30.300781 62.136719 30.289062 62.136719 30.28125 62.136719 C 30.238281 62.128906 30.210938 62.082031 30.21875 62.039062 C 30.992188 58.664062 30.878906 53.660156 30.875 53.613281 C 30.875 53.566406 30.910156 53.527344 30.957031 53.527344 C 31 53.53125 31.039062 53.5625 31.042969 53.609375 C 31.042969 53.65625 31.15625 58.683594 30.378906 62.074219 C 30.371094 62.113281 30.339844 62.136719 30.300781 62.136719 Z M 30.300781 62.136719 " fill-opacity="1" fill-rule="nonzero"></path><path fill="#7f9705" d="M 30.957031 55.015625 C 30.957031 55.015625 33.359375 51.910156 34.636719 52.347656 C 35.910156 52.78125 34.234375 56.546875 30.96875 56.496094 L 30.960938 55.015625 Z M 30.957031 55.015625 " fill-opacity="1" fill-rule="nonzero"></path><path fill="#7f9705" d="M 30.957031 55.015625 C 30.957031 55.015625 30.054688 51.570312 27.824219 52.054688 C 25.59375 52.539062 28.980469 56.984375 30.96875 56.496094 L 30.960938 55.015625 Z M 30.957031 55.015625 " fill-opacity="1" fill-rule="nonzero"></path><path fill="#7f9705" d="M 30.722656 59.3125 C 30.722656 59.3125 29.222656 55.625 27.261719 56.011719 C 25.300781 56.398438 28.199219 59.09375 28.992188 59.53125 C 29.785156 59.96875 30.632812 60.105469 30.632812 60.105469 Z M 30.722656 59.3125 " fill-opacity="1" fill-rule="nonzero"></path><path fill="#7f9705" d="M 30.722656 59.3125 C 30.722656 59.3125 32.503906 55.515625 34.5625 56.5 C 36.621094 57.480469 33.097656 60.800781 30.632812 60.105469 Z M 30.722656 59.3125 " fill-opacity="1" fill-rule="nonzero"></path><path fill="#7f9705" d="M 30.957031 53.609375 C 30.957031 53.609375 28.511719 49.167969 31.277344 48.679688 C 34.046875 48.195312 32.402344 53.097656 30.957031 53.609375 Z M 30.957031 53.609375 " fill-opacity="1" fill-rule="nonzero"></path><path fill="#000000" d="M 31.03125 56.582031 C 31.007812 56.582031 30.988281 56.582031 30.964844 56.582031 C 30.921875 56.582031 30.886719 56.542969 30.882812 56.5 L 30.875 55.015625 C 30.875 55 30.882812 54.980469 30.890625 54.96875 C 30.992188 54.839844 33.347656 51.820312 34.664062 52.273438 C 35.054688 52.40625 35.21875 52.816406 35.117188 53.398438 C 34.878906 54.742188 33.328125 56.582031 31.03125 56.582031 Z M 31.042969 55.042969 L 31.050781 56.414062 C 33.21875 56.402344 34.730469 54.617188 34.953125 53.367188 C 35.039062 52.871094 34.914062 52.53125 34.609375 52.421875 C 33.460938 52.03125 31.257812 54.765625 31.042969 55.042969 Z M 31.042969 55.042969 " fill-opacity="1" fill-rule="nonzero"></path><path fill="#000000" d="M 30.648438 56.617188 C 29.824219 56.617188 28.894531 55.964844 28.253906 55.292969 C 27.492188 54.492188 26.824219 53.347656 27.054688 52.597656 C 27.15625 52.277344 27.414062 52.0625 27.808594 51.976562 C 30.089844 51.480469 31.03125 54.960938 31.039062 54.996094 C 31.042969 55.003906 31.042969 55.011719 31.042969 55.015625 L 31.050781 56.5 C 31.050781 56.539062 31.023438 56.570312 30.988281 56.578125 C 30.878906 56.605469 30.765625 56.617188 30.652344 56.617188 Z M 28.242188 52.09375 C 28.113281 52.09375 27.980469 52.105469 27.84375 52.136719 C 27.507812 52.210938 27.296875 52.378906 27.214844 52.644531 C 27.03125 53.230469 27.507812 54.273438 28.375 55.179688 C 29.054688 55.894531 30.0625 56.585938 30.882812 56.433594 L 30.875 55.027344 C 30.824219 54.84375 30.027344 52.09375 28.242188 52.09375 Z M 28.242188 52.09375 " fill-opacity="1" fill-rule="nonzero"></path><path fill="#000000" d="M 30.632812 60.1875 C 30.632812 60.1875 30.625 60.1875 30.621094 60.1875 C 30.585938 60.183594 29.746094 60.042969 28.953125 59.605469 C 28.398438 59.296875 26.363281 57.523438 26.519531 56.53125 C 26.570312 56.21875 26.8125 56.019531 27.246094 55.933594 C 29.253906 55.535156 30.738281 59.128906 30.800781 59.28125 C 30.804688 59.292969 30.808594 59.308594 30.804688 59.320312 L 30.714844 60.113281 C 30.714844 60.136719 30.703125 60.15625 30.683594 60.171875 C 30.667969 60.179688 30.648438 60.1875 30.632812 60.1875 Z M 27.550781 56.066406 C 27.460938 56.066406 27.371094 56.074219 27.277344 56.09375 C 26.914062 56.164062 26.722656 56.316406 26.683594 56.554688 C 26.546875 57.421875 28.410156 59.117188 29.035156 59.460938 C 29.660156 59.804688 30.328125 59.960938 30.5625 60.007812 L 30.640625 59.324219 C 30.527344 59.054688 29.222656 56.066406 27.550781 56.066406 Z M 27.550781 56.066406 " fill-opacity="1" fill-rule="nonzero"></path><path fill="#000000" d="M 31.34375 60.28125 C 31.09375 60.28125 30.847656 60.25 30.609375 60.183594 C 30.570312 60.175781 30.546875 60.136719 30.550781 60.097656 L 30.640625 59.304688 C 30.640625 59.296875 30.644531 59.285156 30.648438 59.277344 C 30.691406 59.179688 31.78125 56.886719 33.273438 56.359375 C 33.726562 56.199219 34.171875 56.21875 34.597656 56.421875 C 35.210938 56.714844 35.410156 57.230469 35.164062 57.875 C 34.746094 58.960938 32.976562 60.28125 31.339844 60.28125 Z M 30.722656 60.046875 C 32.429688 60.472656 34.554688 58.996094 35.007812 57.816406 C 35.160156 57.425781 35.195312 56.894531 34.527344 56.574219 C 34.144531 56.390625 33.738281 56.371094 33.328125 56.515625 C 31.957031 57 30.890625 59.15625 30.804688 59.335938 L 30.726562 60.046875 Z M 30.722656 60.046875 " fill-opacity="1" fill-rule="nonzero"></path><path fill="#000000" d="M 30.957031 53.691406 C 30.929688 53.691406 30.902344 53.675781 30.886719 53.648438 C 30.824219 53.535156 29.367188 50.863281 30.0625 49.429688 C 30.28125 48.980469 30.683594 48.703125 31.261719 48.601562 C 32.292969 48.421875 32.660156 48.960938 32.789062 49.445312 C 33.144531 50.765625 32.0625 53.304688 30.984375 53.6875 C 30.976562 53.691406 30.964844 53.691406 30.957031 53.691406 Z M 31.644531 48.730469 C 31.535156 48.730469 31.417969 48.742188 31.292969 48.761719 C 30.769531 48.855469 30.40625 49.101562 30.214844 49.5 C 29.609375 50.742188 30.777344 53.085938 30.996094 53.503906 C 31.902344 53.09375 32.976562 50.78125 32.632812 49.484375 C 32.496094 48.984375 32.164062 48.730469 31.644531 48.730469 Z M 31.644531 48.730469 " fill-opacity="1" fill-rule="nonzero"></path><path fill="#c48255" d="M 23.507812 46.179688 C 23.140625 47.269531 22.980469 48.484375 22.863281 49.625 C 22.660156 51.957031 22.796875 54.324219 23.054688 56.648438 C 23.1875 57.828125 23.375 58.996094 23.515625 60.179688 C 23.515625 60.179688 23.359375 60.21875 23.359375 60.21875 C 23.152344 59.65625 22.96875 59.085938 22.785156 58.511719 C 21.90625 55.316406 21.558594 51.890625 22.339844 48.640625 C 22.574219 47.753906 22.859375 46.878906 23.371094 46.101562 C 23.371094 46.101562 23.507812 46.179688 23.507812 46.179688 Z M 23.507812 46.179688 " fill-opacity="1" fill-rule="nonzero"></path><path fill="#c48255" d="M 24.484375 52.972656 C 24.484375 53.375 24.453125 53.757812 24.386719 54.125 C 24.320312 54.496094 24.226562 54.820312 24.109375 55.101562 C 23.988281 55.386719 23.847656 55.601562 23.6875 55.753906 C 23.53125 55.90625 23.367188 55.984375 23.195312 55.984375 C 23.023438 55.984375 22.859375 55.90625 22.703125 55.753906 C 22.542969 55.601562 22.40625 55.386719 22.285156 55.101562 C 22.164062 54.820312 22.070312 54.496094 22.003906 54.125 C 21.9375 53.757812 21.90625 53.375 21.90625 52.972656 C 21.90625 52.574219 21.9375 52.191406 22.003906 51.824219 C 22.070312 51.453125 22.164062 51.128906 22.285156 50.847656 C 22.40625 50.5625 22.542969 50.347656 22.703125 50.195312 C 22.859375 50.039062 23.023438 49.964844 23.195312 49.964844 C 23.367188 49.964844 23.53125 50.039062 23.6875 50.195312 C 23.847656 50.347656 23.988281 50.5625 24.109375 50.847656 C 24.226562 51.128906 24.320312 51.453125 24.386719 51.824219 C 24.453125 52.191406 24.484375 52.574219 24.484375 52.972656 Z M 24.484375 52.972656 " fill-opacity="1" fill-rule="nonzero"></path><g clip-path="url(#35372a88e2)"><path fill="#a66537" d="M 62.746094 49.761719 C 62.746094 49.761719 63.308594 53.324219 63.253906 56.808594 C 63.246094 57.441406 63.214844 58.066406 63.160156 58.671875 C 62.789062 62.621094 60.203125 69.253906 60.203125 69.253906 C 60.203125 69.253906 61.472656 71.9375 60.203125 72.386719 C 58.929688 72.832031 57.367188 70.796875 57.367188 70.796875 C 51.824219 72.109375 46.449219 71.832031 41.269531 69.726562 C 41.269531 69.726562 38.203125 71.300781 37.488281 70.050781 C 36.777344 68.804688 39.597656 67.042969 39.597656 67.042969 C 39.523438 66.390625 39.46875 65.742188 39.4375 65.097656 C 38.984375 55.578125 43.210938 46.96875 43.210938 46.96875 C 42.652344 45.679688 42.128906 43.535156 43.40625 43.332031 C 44.675781 43.128906 46.609375 45.296875 46.609375 45.296875 L 60.039062 47.230469 C 60.039062 47.230469 62.625 45.164062 64.0625 45.734375 C 65.5 46.300781 62.75 49.761719 62.75 49.761719 Z M 62.746094 49.761719 " fill-opacity="1" fill-rule="nonzero"></path></g><g clip-path="url(#2721435566)"><path fill="#995c33" d="M 63.15625 58.671875 C 62.789062 62.621094 60.199219 69.253906 60.199219 69.253906 C 60.199219 69.253906 61.472656 71.9375 60.199219 72.386719 C 58.925781 72.832031 57.367188 70.796875 57.367188 70.796875 C 51.824219 72.109375 46.449219 71.832031 41.265625 69.726562 C 41.265625 69.726562 38.199219 71.300781 37.488281 70.050781 C 36.777344 68.804688 39.597656 67.042969 39.597656 67.042969 C 39.519531 66.390625 39.46875 65.742188 39.4375 65.097656 C 41.109375 65.324219 43.457031 65.589844 46.707031 65.855469 C 53.695312 66.429688 60.6875 59.613281 63.253906 56.808594 C 63.242188 57.441406 63.214844 58.066406 63.15625 58.671875 Z M 63.15625 58.671875 " fill-opacity="1" fill-rule="nonzero"></path></g><g clip-path="url(#c980c973e5)"><path fill="#000000" d="M 59.8125 72.542969 C 58.703125 72.542969 57.554688 71.179688 57.332031 70.902344 C 51.699219 72.222656 46.292969 71.859375 41.269531 69.828125 C 40.894531 70.015625 38.121094 71.34375 37.40625 70.097656 C 36.707031 68.867188 39.105469 67.246094 39.5 66.996094 C 38.367188 57.171875 42.785156 47.648438 43.109375 46.964844 C 42.660156 45.917969 42.289062 44.457031 42.699219 43.710938 C 42.847656 43.449219 43.078125 43.292969 43.386719 43.242188 C 44.636719 43.039062 46.421875 44.953125 46.652344 45.210938 L 60.007812 47.132812 C 60.324219 46.882812 62.695312 45.09375 64.09375 45.648438 C 64.324219 45.738281 64.472656 45.902344 64.535156 46.132812 C 64.824219 47.207031 63.085938 49.480469 62.84375 49.785156 C 62.917969 50.265625 63.597656 54.953125 63.25 58.679688 C 62.898438 62.445312 60.507812 68.710938 60.300781 69.25 C 60.421875 69.515625 61.117188 71.109375 60.753906 71.976562 C 60.652344 72.21875 60.476562 72.386719 60.230469 72.472656 C 60.09375 72.519531 59.953125 72.542969 59.8125 72.542969 Z M 57.367188 70.707031 C 57.394531 70.707031 57.421875 70.71875 57.441406 70.742188 C 57.457031 70.761719 58.976562 72.71875 60.167969 72.296875 C 60.367188 72.230469 60.5 72.101562 60.582031 71.90625 C 60.945312 71.054688 60.125 69.308594 60.117188 69.292969 C 60.105469 69.269531 60.105469 69.242188 60.113281 69.21875 C 60.140625 69.152344 62.703125 62.554688 63.066406 58.664062 C 63.429688 54.773438 62.664062 49.824219 62.65625 49.777344 C 62.652344 49.75 62.65625 49.722656 62.675781 49.707031 C 62.691406 49.679688 64.636719 47.21875 64.355469 46.179688 C 64.308594 46.007812 64.203125 45.886719 64.023438 45.820312 C 62.65625 45.277344 60.117188 47.28125 60.09375 47.300781 C 60.074219 47.316406 60.046875 47.324219 60.023438 47.320312 L 46.589844 45.390625 C 46.570312 45.386719 46.550781 45.375 46.535156 45.359375 C 46.515625 45.335938 44.625 43.230469 43.417969 43.425781 C 43.160156 43.464844 42.980469 43.589844 42.863281 43.800781 C 42.503906 44.453125 42.820312 45.84375 43.296875 46.929688 C 43.308594 46.957031 43.304688 46.984375 43.292969 47.007812 C 43.246094 47.105469 38.5 56.921875 39.691406 67.03125 C 39.695312 67.066406 39.679688 67.101562 39.648438 67.117188 C 39.621094 67.136719 36.910156 68.847656 37.570312 70.007812 C 38.230469 71.164062 41.195312 69.660156 41.226562 69.644531 C 41.25 69.632812 41.277344 69.628906 41.304688 69.640625 C 46.320312 71.679688 51.71875 72.039062 57.347656 70.710938 C 57.355469 70.707031 57.363281 70.707031 57.367188 70.707031 Z M 57.367188 70.707031 " fill-opacity="1" fill-rule="nonzero"></path></g><path fill="#ffb500" d="M 54.347656 50.101562 C 54.558594 50.179688 54.75 50.308594 54.921875 50.484375 C 55.09375 50.660156 55.238281 50.878906 55.359375 51.140625 C 55.484375 51.402344 55.578125 51.703125 55.648438 52.039062 C 55.71875 52.378906 55.761719 52.75 55.777344 53.152344 C 55.789062 53.554688 55.777344 53.980469 55.738281 54.429688 C 55.695312 54.882812 55.625 55.347656 55.53125 55.828125 C 55.4375 56.3125 55.316406 56.796875 55.167969 57.292969 C 55.023438 57.785156 54.855469 58.277344 54.664062 58.765625 C 54.472656 59.25 54.261719 59.726562 54.03125 60.1875 C 53.804688 60.652344 53.5625 61.089844 53.304688 61.511719 C 53.046875 61.929688 52.777344 62.320312 52.503906 62.679688 C 52.226562 63.039062 51.945312 63.363281 51.660156 63.648438 C 51.375 63.9375 51.09375 64.179688 50.808594 64.382812 C 50.527344 64.585938 50.25 64.746094 49.984375 64.855469 C 49.714844 64.96875 49.457031 65.03125 49.210938 65.046875 C 48.96875 65.0625 48.738281 65.027344 48.527344 64.945312 C 48.316406 64.863281 48.125 64.734375 47.953125 64.5625 C 47.785156 64.386719 47.636719 64.167969 47.515625 63.90625 C 47.390625 63.644531 47.296875 63.34375 47.226562 63.003906 C 47.15625 62.667969 47.113281 62.296875 47.101562 61.894531 C 47.085938 61.492188 47.097656 61.066406 47.140625 60.613281 C 47.179688 60.164062 47.25 59.699219 47.34375 59.21875 C 47.441406 58.734375 47.5625 58.246094 47.707031 57.753906 C 47.851562 57.261719 48.023438 56.769531 48.214844 56.28125 C 48.40625 55.792969 48.613281 55.320312 48.84375 54.859375 C 49.070312 54.394531 49.316406 53.953125 49.574219 53.535156 C 49.832031 53.117188 50.097656 52.726562 50.375 52.367188 C 50.648438 52.007812 50.929688 51.683594 51.214844 51.398438 C 51.5 51.109375 51.785156 50.863281 52.066406 50.660156 C 52.347656 50.457031 52.625 50.300781 52.894531 50.191406 C 53.160156 50.078125 53.417969 50.015625 53.664062 50 C 53.910156 49.984375 54.136719 50.019531 54.347656 50.101562 Z M 54.347656 50.101562 " fill-opacity="1" fill-rule="nonzero"></path><path fill="#ff8500" d="M 54.347656 50.09375 C 53.886719 49.917969 53.363281 49.972656 52.8125 50.21875 C 52.84375 50.226562 52.878906 50.238281 52.910156 50.25 C 54.691406 50.933594 54.832031 54.8125 53.226562 58.914062 C 52.03125 61.957031 50.210938 64.265625 48.625 64.972656 C 50.40625 65.527344 53.082031 62.789062 54.664062 58.761719 C 56.269531 54.660156 56.128906 50.78125 54.347656 50.097656 Z M 54.347656 50.09375 " fill-opacity="1" fill-rule="nonzero"></path><path fill="#000000" d="M 49.105469 65.128906 C 48.890625 65.128906 48.6875 65.09375 48.496094 65.019531 C 47.601562 64.675781 47.074219 63.566406 47.015625 61.890625 C 46.957031 60.246094 47.351562 58.238281 48.132812 56.246094 C 49.753906 52.113281 52.558594 49.316406 54.378906 50.015625 C 56.199219 50.71875 56.363281 54.652344 54.742188 58.789062 C 53.960938 60.78125 52.886719 62.527344 51.722656 63.703125 C 50.792969 64.640625 49.886719 65.128906 49.105469 65.128906 Z M 53.765625 50.074219 C 52.046875 50.074219 49.71875 52.664062 48.289062 56.308594 C 47.515625 58.28125 47.121094 60.261719 47.179688 61.886719 C 47.242188 63.488281 47.726562 64.546875 48.554688 64.863281 C 49.382812 65.183594 50.464844 64.730469 51.597656 63.585938 C 52.75 62.425781 53.8125 60.703125 54.585938 58.730469 C 56.171875 54.679688 56.050781 50.839844 54.316406 50.171875 C 54.140625 50.105469 53.957031 50.070312 53.765625 50.070312 Z M 54.664062 58.757812 Z M 54.664062 58.757812 " fill-opacity="1" fill-rule="nonzero"></path><path fill="#7f9705" d="M 55.339844 60.398438 C 54.832031 61.820312 50.964844 67.144531 48.527344 64.941406 C 48.527344 64.941406 47.285156 62.566406 50 59.488281 C 50.121094 59.347656 50.253906 59.207031 50.394531 59.066406 C 53.617188 55.785156 57.285156 56 57.96875 56.417969 C 58.652344 56.832031 55.847656 58.976562 55.339844 60.398438 Z M 55.339844 60.398438 " fill-opacity="1" fill-rule="nonzero"></path><path fill="#000000" d="M 49.851562 65.550781 C 49.335938 65.550781 48.875 65.367188 48.46875 65.003906 C 48.464844 64.996094 48.457031 64.988281 48.453125 64.980469 C 48.441406 64.957031 47.214844 62.519531 49.933594 59.4375 C 50.046875 59.308594 50.175781 59.167969 50.332031 59.007812 C 53.660156 55.621094 57.363281 55.957031 58.011719 56.347656 C 58.089844 56.394531 58.140625 56.46875 58.152344 56.554688 C 58.207031 56.910156 57.671875 57.515625 56.992188 58.277344 C 56.359375 58.984375 55.644531 59.789062 55.417969 60.425781 C 55.046875 61.464844 52.691406 64.914062 50.441406 65.476562 C 50.238281 65.527344 50.039062 65.550781 49.847656 65.550781 Z M 48.597656 64.890625 C 49.105469 65.34375 49.714844 65.488281 50.40625 65.316406 C 52.597656 64.769531 54.898438 61.390625 55.261719 60.371094 C 55.5 59.703125 56.226562 58.886719 56.867188 58.167969 C 57.441406 57.523438 58.03125 56.859375 57.988281 56.578125 C 57.984375 56.539062 57.964844 56.511719 57.925781 56.488281 C 57.1875 56.042969 53.539062 55.984375 50.453125 59.121094 C 50.300781 59.277344 50.171875 59.414062 50.0625 59.542969 C 47.523438 62.425781 48.507812 64.703125 48.597656 64.890625 Z M 48.597656 64.890625 " fill-opacity="1" fill-rule="nonzero"></path><path fill="#7f9705" d="M 48.527344 64.941406 C 48.527344 64.941406 46.550781 64.941406 45.757812 61.273438 C 45.101562 58.246094 46.550781 54.480469 47.226562 52.960938 C 47.382812 52.605469 47.871094 52.539062 48.113281 52.847656 C 49.359375 54.453125 49.832031 57.734375 50 59.488281 C 47.285156 62.566406 48.527344 64.941406 48.527344 64.941406 Z M 48.527344 64.941406 " fill-opacity="1" fill-rule="nonzero"></path><path fill="#000000" d="M 48.527344 65.023438 C 48.445312 65.023438 46.472656 64.984375 45.675781 61.289062 C 45.011719 58.234375 46.484375 54.421875 47.148438 52.925781 C 47.238281 52.730469 47.417969 52.597656 47.632812 52.570312 C 47.847656 52.542969 48.050781 52.628906 48.179688 52.796875 C 49.433594 54.40625 49.910156 57.675781 50.082031 59.480469 C 50.085938 59.503906 50.078125 59.527344 50.0625 59.542969 C 47.421875 62.539062 48.589844 64.878906 48.601562 64.902344 C 48.613281 64.929688 48.613281 64.960938 48.597656 64.984375 C 48.582031 65.007812 48.554688 65.023438 48.527344 65.023438 Z M 47.707031 52.734375 C 47.691406 52.734375 47.671875 52.734375 47.65625 52.734375 C 47.496094 52.753906 47.367188 52.851562 47.300781 52.996094 C 46.644531 54.476562 45.183594 58.246094 45.839844 61.257812 C 46.488281 64.253906 47.945312 64.757812 48.394531 64.84375 C 48.183594 64.285156 47.589844 62.117188 49.914062 59.460938 C 49.738281 57.667969 49.265625 54.464844 48.046875 52.898438 C 47.964844 52.792969 47.839844 52.734375 47.707031 52.734375 Z M 47.707031 52.734375 " fill-opacity="1" fill-rule="nonzero"></path><path fill="#c48255" d="M 44.894531 48.324219 C 43.464844 52.488281 42.523438 56.824219 41.960938 61.183594 C 41.871094 61.808594 41.816406 62.4375 41.71875 63.066406 C 41.707031 63.167969 41.542969 63.175781 41.535156 63.058594 C 41.523438 62.742188 41.511719 62.421875 41.507812 62.101562 C 41.46875 58.597656 42.0625 55.078125 43.1875 51.757812 C 43.605469 50.550781 44.089844 49.363281 44.726562 48.246094 C 44.753906 48.199219 44.808594 48.1875 44.855469 48.210938 C 44.894531 48.234375 44.910156 48.28125 44.894531 48.324219 Z M 44.894531 48.324219 " fill-opacity="1" fill-rule="nonzero"></path><path fill="#c48255" d="M 43.984375 51.984375 C 44.105469 52.011719 44.203125 52.144531 44.269531 52.382812 C 44.335938 52.621094 44.371094 52.949219 44.371094 53.363281 C 44.375 53.78125 44.34375 54.253906 44.277344 54.78125 C 44.214844 55.3125 44.121094 55.859375 44.003906 56.421875 C 43.882812 56.984375 43.746094 57.519531 43.589844 58.03125 C 43.429688 58.539062 43.269531 58.984375 43.097656 59.367188 C 42.925781 59.746094 42.761719 60.03125 42.605469 60.222656 C 42.445312 60.414062 42.304688 60.5 42.183594 60.472656 C 42.0625 60.449219 41.96875 60.316406 41.898438 60.078125 C 41.832031 59.835938 41.800781 59.511719 41.796875 59.09375 C 41.796875 58.679688 41.828125 58.207031 41.890625 57.675781 C 41.953125 57.148438 42.046875 56.601562 42.164062 56.039062 C 42.285156 55.476562 42.421875 54.9375 42.582031 54.429688 C 42.738281 53.917969 42.902344 53.472656 43.070312 53.09375 C 43.242188 52.714844 43.40625 52.425781 43.566406 52.234375 C 43.722656 52.042969 43.863281 51.960938 43.984375 51.984375 Z M 43.984375 51.984375 " fill-opacity="1" fill-rule="nonzero"></path><path fill="#ffca9d" d="M 58.042969 35.695312 L 50.371094 44.070312 C 50.371094 44.070312 43.839844 45.511719 43.800781 47.652344 C 43.800781 47.652344 43.140625 48.742188 44.371094 48.941406 C 44.371094 48.941406 44.453125 49.695312 45.460938 49.476562 C 45.460938 49.476562 45.992188 50.410156 47.035156 50.066406 C 48.078125 49.722656 48.894531 49.34375 48.894531 49.34375 C 48.894531 49.34375 50.15625 49.515625 50.863281 49.222656 C 51.570312 48.933594 53.675781 47.046875 53.675781 47.046875 L 64.152344 39.617188 Z M 58.042969 35.695312 " fill-opacity="1" fill-rule="nonzero"></path><path fill="#000000" d="M 46.585938 50.183594 C 45.910156 50.183594 45.519531 49.648438 45.441406 49.523438 C 45.09375 49.59375 44.816406 49.558594 44.613281 49.414062 C 44.40625 49.265625 44.347656 49.054688 44.332031 48.976562 C 43.980469 48.914062 43.746094 48.769531 43.644531 48.546875 C 43.472656 48.175781 43.71875 47.714844 43.761719 47.640625 C 43.816406 45.523438 49.941406 44.125 50.351562 44.03125 L 58.015625 35.667969 C 58.027344 35.652344 58.050781 35.652344 58.066406 35.660156 L 64.175781 39.582031 C 64.183594 39.589844 64.191406 39.601562 64.195312 39.613281 C 64.195312 39.628906 64.1875 39.640625 64.175781 39.648438 L 53.703125 47.078125 C 53.621094 47.152344 51.585938 48.96875 50.882812 49.257812 C 50.203125 49.539062 49.042969 49.398438 48.902344 49.382812 C 48.800781 49.425781 48.019531 49.785156 47.050781 50.105469 C 46.882812 50.160156 46.730469 50.179688 46.589844 50.179688 Z M 45.460938 49.4375 C 45.472656 49.4375 45.488281 49.445312 45.496094 49.457031 C 45.515625 49.492188 46.023438 50.359375 47.019531 50.027344 C 48.050781 49.6875 48.867188 49.308594 48.875 49.304688 C 48.882812 49.300781 48.890625 49.300781 48.898438 49.300781 C 48.910156 49.300781 50.160156 49.46875 50.847656 49.183594 C 51.539062 48.898438 53.628906 47.03125 53.648438 47.011719 L 64.078125 39.617188 L 58.050781 35.75 L 50.402344 44.097656 C 50.402344 44.097656 50.390625 44.109375 50.382812 44.109375 C 50.316406 44.125 43.875 45.566406 43.839844 47.652344 C 43.839844 47.660156 43.839844 47.664062 43.835938 47.671875 C 43.832031 47.675781 43.550781 48.152344 43.71875 48.511719 C 43.8125 48.714844 44.035156 48.84375 44.375 48.898438 C 44.394531 48.902344 44.40625 48.917969 44.410156 48.933594 C 44.410156 48.9375 44.441406 49.191406 44.660156 49.347656 C 44.847656 49.476562 45.113281 49.507812 45.449219 49.433594 C 45.453125 49.433594 45.457031 49.433594 45.457031 49.433594 Z M 50.371094 44.070312 Z M 50.371094 44.070312 " fill-opacity="1" fill-rule="nonzero"></path><g clip-path="url(#32fd20fccb)"><path fill="#f9eacc" d="M 57.210938 22.050781 C 57.210938 22.050781 66.867188 22.667969 66.082031 33.765625 C 66.035156 34.425781 65.902344 35.078125 65.6875 35.707031 L 64.269531 39.820312 L 56.808594 36.96875 C 58.867188 31.910156 59.421875 26.921875 57.210938 22.054688 Z M 57.210938 22.050781 " fill-opacity="1" fill-rule="nonzero"></path></g><g clip-path="url(#56acf95557)"><path fill="#f4deb8" d="M 63.382812 24.933594 C 64.269531 26.585938 64.796875 28.792969 64.589844 31.734375 C 64.542969 32.394531 64.410156 33.050781 64.191406 33.679688 C 63.417969 35.925781 60.917969 37.082031 58.683594 36.226562 L 57.292969 35.695312 C 57.140625 36.121094 56.980469 36.542969 56.808594 36.96875 L 64.265625 39.820312 L 65.683594 35.707031 C 65.898438 35.082031 66.03125 34.433594 66.078125 33.78125 C 66.390625 29.40625 65.082031 26.660156 63.382812 24.9375 Z M 63.382812 24.933594 " fill-opacity="1" fill-rule="nonzero"></path></g><g clip-path="url(#abf9354993)"><path fill="#000000" d="M 64.269531 39.855469 C 64.269531 39.855469 64.257812 39.855469 64.253906 39.851562 L 56.796875 37 C 56.785156 36.996094 56.777344 36.992188 56.773438 36.980469 C 56.769531 36.972656 56.769531 36.960938 56.773438 36.953125 C 57.554688 35.035156 58.070312 33.257812 58.351562 31.523438 C 58.355469 31.503906 58.371094 31.488281 58.394531 31.492188 C 58.414062 31.496094 58.429688 31.511719 58.425781 31.535156 C 58.144531 33.265625 57.632812 35.035156 56.859375 36.941406 L 64.246094 39.765625 L 65.515625 36.085938 C 65.859375 35.085938 66.046875 34.070312 66.082031 33.054688 C 66.253906 27.691406 63.832031 24.996094 61.773438 23.679688 C 59.539062 22.25 57.230469 22.089844 57.207031 22.085938 C 57.1875 22.085938 57.171875 22.066406 57.171875 22.046875 C 57.171875 22.027344 57.191406 22.007812 57.210938 22.011719 C 57.234375 22.011719 59.558594 22.175781 61.8125 23.613281 C 63.890625 24.941406 66.332031 27.660156 66.15625 33.058594 C 66.125 34.078125 65.933594 35.105469 65.585938 36.109375 L 64.304688 39.828125 C 64.304688 39.835938 64.292969 39.847656 64.285156 39.851562 C 64.28125 39.851562 64.277344 39.855469 64.269531 39.855469 Z M 64.269531 39.855469 " fill-opacity="1" fill-rule="nonzero"></path></g><path fill="#89c10a" d="M 15.058594 52.421875 C 15.058594 52.421875 11.722656 48.011719 12.675781 46.730469 C 13.625 45.449219 21.808594 51.300781 21.449219 55.863281 Z M 15.058594 52.421875 " fill-opacity="1" fill-rule="nonzero"></path><path fill="#89c10a" d="M 16.101562 48.195312 C 16.988281 48.835938 17.855469 49.601562 18.605469 50.402344 C 20.3125 52.226562 21.246094 54.03125 21.261719 55.53125 L 21.054688 55.421875 C 20.585938 53.675781 19.128906 51.65625 17.046875 49.871094 C 16.179688 49.128906 15.257812 48.480469 14.445312 48.042969 C 13.925781 47.761719 13.234375 47.453125 12.707031 47.449219 C 12.695312 47.226562 12.722656 47.046875 12.792969 46.914062 C 12.808594 46.890625 12.820312 46.871094 12.835938 46.847656 C 12.921875 46.730469 13.238281 46.6875 13.855469 46.914062 C 14.476562 47.144531 15.273438 47.597656 16.097656 48.195312 Z M 16.101562 48.195312 " fill-opacity="1" fill-rule="nonzero"></path><path fill="#7faa07" d="M 16.101562 48.195312 C 16.988281 48.835938 17.855469 49.601562 18.605469 50.402344 C 20.3125 52.226562 21.246094 54.03125 21.261719 55.53125 L 21.054688 55.421875 C 20.585938 53.675781 19.128906 51.65625 17.046875 49.871094 C 16.179688 49.128906 15.257812 48.480469 14.445312 48.042969 C 13.925781 47.761719 13.234375 47.453125 12.707031 47.449219 C 12.695312 47.226562 12.722656 47.046875 12.792969 46.914062 C 12.808594 46.890625 12.820312 46.871094 12.835938 46.847656 C 12.921875 46.730469 13.238281 46.6875 13.855469 46.914062 C 14.476562 47.144531 15.273438 47.597656 16.097656 48.195312 Z M 16.101562 48.195312 " fill-opacity="1" fill-rule="nonzero"></path><path fill="#000000" d="M 21.449219 55.882812 C 21.449219 55.882812 21.445312 55.882812 21.441406 55.878906 L 15.050781 52.441406 C 15.050781 52.441406 15.046875 52.4375 15.046875 52.433594 C 14.910156 52.253906 11.710938 47.996094 12.660156 46.71875 C 12.84375 46.472656 13.285156 46.46875 13.933594 46.710938 C 15.316406 47.21875 17.257812 48.644531 18.769531 50.253906 C 20.636719 52.25 21.597656 54.242188 21.46875 55.863281 C 21.46875 55.867188 21.464844 55.875 21.460938 55.878906 C 21.457031 55.878906 21.453125 55.882812 21.453125 55.882812 Z M 15.070312 52.410156 L 21.433594 55.832031 C 21.703125 52.066406 16.289062 47.621094 13.921875 46.746094 C 13.289062 46.511719 12.863281 46.511719 12.6875 46.742188 C 11.765625 47.984375 14.964844 52.269531 15.070312 52.410156 Z M 15.070312 52.410156 " fill-opacity="1" fill-rule="nonzero"></path><g clip-path="url(#53d0258b8b)"><path fill="#89c10a" d="M 15.027344 52.484375 C 15.027344 52.484375 9.472656 52.167969 8.917969 53.664062 C 8.367188 55.15625 17.808594 58.683594 21.449219 55.863281 Z M 15.027344 52.484375 " fill-opacity="1" fill-rule="nonzero"></path></g><path fill="#89c10a" d="M 19.234375 56.574219 C 18.089844 56.792969 16.695312 56.773438 15.128906 56.503906 C 14.042969 56.316406 12.933594 56.015625 11.921875 55.636719 C 10.976562 55.28125 10.175781 54.875 9.664062 54.492188 C 9.253906 54.183594 9.046875 53.898438 9.109375 53.730469 C 9.117188 53.707031 9.128906 53.683594 9.140625 53.660156 C 9.226562 53.496094 9.414062 53.347656 9.6875 53.21875 C 9.667969 53.460938 9.800781 53.726562 10.089844 54.007812 C 10.898438 54.792969 12.867188 55.65625 14.988281 56.152344 C 15.996094 56.390625 17.621094 56.679688 19.234375 56.574219 Z M 19.234375 56.574219 " fill-opacity="1" fill-rule="nonzero"></path><path fill="#b0db3a" d="M 19.234375 56.574219 C 18.089844 56.792969 16.695312 56.773438 15.128906 56.503906 C 14.042969 56.316406 12.933594 56.015625 11.921875 55.636719 C 10.976562 55.28125 10.175781 54.875 9.664062 54.492188 C 9.253906 54.183594 9.046875 53.898438 9.109375 53.730469 C 9.117188 53.707031 9.128906 53.683594 9.140625 53.660156 C 9.226562 53.496094 9.414062 53.347656 9.6875 53.21875 C 9.667969 53.460938 9.800781 53.726562 10.089844 54.007812 C 10.898438 54.792969 12.867188 55.65625 14.988281 56.152344 C 15.996094 56.390625 17.621094 56.679688 19.234375 56.574219 Z M 19.234375 56.574219 " fill-opacity="1" fill-rule="nonzero"></path><g clip-path="url(#4160610cac)"><path fill="#000000" d="M 17.527344 56.941406 C 16.820312 56.941406 16.058594 56.875 15.25 56.746094 C 13.0625 56.390625 10.789062 55.574219 9.597656 54.714844 C 9.035156 54.308594 8.796875 53.945312 8.902344 53.65625 C 9.453125 52.167969 14.800781 52.457031 15.027344 52.46875 C 15.027344 52.46875 15.03125 52.46875 15.035156 52.472656 L 21.457031 55.847656 C 21.457031 55.847656 21.464844 55.855469 21.464844 55.863281 C 21.464844 55.871094 21.464844 55.875 21.460938 55.878906 C 20.550781 56.582031 19.191406 56.945312 17.523438 56.945312 Z M 13.855469 52.476562 C 12.199219 52.476562 9.320312 52.632812 8.9375 53.671875 C 8.835938 53.941406 9.074219 54.292969 9.621094 54.6875 C 11.664062 56.160156 18.398438 58.171875 21.417969 55.867188 L 15.023438 52.503906 C 14.972656 52.503906 14.507812 52.480469 13.855469 52.480469 Z M 13.855469 52.476562 " fill-opacity="1" fill-rule="nonzero"></path></g><path fill="#ffb500" d="M 17.226562 50.195312 C 17.601562 50.390625 17.960938 50.605469 18.304688 50.832031 C 18.652344 51.058594 18.976562 51.300781 19.285156 51.546875 C 19.59375 51.796875 19.875 52.054688 20.132812 52.316406 C 20.386719 52.578125 20.613281 52.839844 20.8125 53.101562 C 21.007812 53.367188 21.167969 53.625 21.296875 53.878906 C 21.425781 54.136719 21.515625 54.382812 21.570312 54.617188 C 21.625 54.855469 21.644531 55.078125 21.621094 55.289062 C 21.601562 55.496094 21.546875 55.691406 21.449219 55.863281 C 21.355469 56.039062 21.226562 56.191406 21.0625 56.324219 C 20.894531 56.457031 20.699219 56.566406 20.46875 56.652344 C 20.238281 56.738281 19.980469 56.800781 19.695312 56.835938 C 19.410156 56.871094 19.101562 56.878906 18.773438 56.863281 C 18.441406 56.847656 18.097656 56.804688 17.734375 56.738281 C 17.375 56.667969 17.003906 56.578125 16.625 56.460938 C 16.242188 56.347656 15.863281 56.207031 15.480469 56.046875 C 15.097656 55.886719 14.71875 55.710938 14.347656 55.511719 C 13.976562 55.3125 13.617188 55.101562 13.269531 54.871094 C 12.921875 54.644531 12.597656 54.40625 12.289062 54.15625 C 11.980469 53.90625 11.699219 53.652344 11.441406 53.390625 C 11.1875 53.128906 10.960938 52.867188 10.765625 52.601562 C 10.566406 52.339844 10.40625 52.082031 10.277344 51.824219 C 10.148438 51.570312 10.058594 51.324219 10.003906 51.085938 C 9.949219 50.851562 9.929688 50.625 9.953125 50.417969 C 9.972656 50.207031 10.03125 50.015625 10.125 49.839844 C 10.21875 49.664062 10.347656 49.511719 10.515625 49.378906 C 10.679688 49.246094 10.875 49.136719 11.105469 49.050781 C 11.335938 48.964844 11.59375 48.90625 11.878906 48.871094 C 12.164062 48.835938 12.472656 48.824219 12.800781 48.84375 C 13.132812 48.859375 13.476562 48.902344 13.839844 48.96875 C 14.199219 49.035156 14.570312 49.128906 14.953125 49.242188 C 15.332031 49.359375 15.710938 49.496094 16.09375 49.65625 C 16.480469 49.816406 16.855469 49.996094 17.226562 50.195312 Z M 17.226562 50.195312 " fill-opacity="1" fill-rule="nonzero"></path><path fill="#fcd06d" d="M 11.734375 49.089844 C 11.527344 49.25 11.359375 49.4375 11.242188 49.652344 C 10.816406 50.4375 11.050781 51.492188 11.898438 52.628906 C 12.710938 53.722656 14.007812 54.777344 15.546875 55.59375 C 16.296875 55.992188 17.058594 56.3125 17.804688 56.542969 C 16.746094 56.351562 15.578125 55.9375 14.441406 55.332031 C 12.957031 54.539062 11.707031 53.527344 10.925781 52.480469 C 10.554688 51.980469 10.3125 51.503906 10.207031 51.0625 C 10.101562 50.625 10.132812 50.246094 10.304688 49.933594 C 10.472656 49.617188 10.777344 49.378906 11.203125 49.226562 C 11.363281 49.167969 11.542969 49.121094 11.734375 49.089844 Z M 11.734375 49.089844 " fill-opacity="1" fill-rule="nonzero"></path><path fill="#fcd06d" d="M 12 50.972656 C 12.058594 51.15625 12.097656 51.339844 12.121094 51.523438 C 12.148438 51.703125 12.152344 51.867188 12.140625 52.011719 C 12.128906 52.160156 12.097656 52.28125 12.050781 52.371094 C 12.003906 52.464844 11.945312 52.519531 11.871094 52.542969 C 11.796875 52.566406 11.714844 52.550781 11.625 52.5 C 11.535156 52.449219 11.441406 52.363281 11.351562 52.25 C 11.257812 52.132812 11.171875 51.992188 11.089844 51.828125 C 11.011719 51.667969 10.941406 51.492188 10.886719 51.304688 C 10.828125 51.121094 10.789062 50.9375 10.765625 50.753906 C 10.738281 50.574219 10.734375 50.410156 10.746094 50.265625 C 10.757812 50.117188 10.789062 49.996094 10.835938 49.90625 C 10.882812 49.8125 10.941406 49.757812 11.015625 49.734375 C 11.089844 49.710938 11.171875 49.726562 11.261719 49.777344 C 11.351562 49.828125 11.445312 49.910156 11.535156 50.027344 C 11.628906 50.144531 11.714844 50.285156 11.796875 50.449219 C 11.875 50.609375 11.945312 50.785156 12 50.972656 Z M 12 50.972656 " fill-opacity="1" fill-rule="nonzero"></path><path fill="#fcd06d" d="M 11.734375 49.089844 C 11.527344 49.25 11.359375 49.4375 11.242188 49.652344 C 10.816406 50.4375 11.050781 51.492188 11.898438 52.628906 C 12.710938 53.722656 14.007812 54.777344 15.546875 55.59375 C 16.296875 55.992188 17.058594 56.3125 17.804688 56.542969 C 16.746094 56.351562 15.578125 55.9375 14.441406 55.332031 C 12.957031 54.539062 11.707031 53.527344 10.925781 52.480469 C 10.554688 51.980469 10.3125 51.503906 10.207031 51.0625 C 10.101562 50.625 10.132812 50.246094 10.304688 49.933594 C 10.472656 49.617188 10.777344 49.378906 11.203125 49.226562 C 11.363281 49.167969 11.542969 49.121094 11.734375 49.089844 Z M 11.734375 49.089844 " fill-opacity="1" fill-rule="nonzero"></path><path fill="#ff9700" d="M 17.132812 50.367188 C 18.617188 51.160156 19.867188 52.171875 20.648438 53.21875 C 21.019531 53.71875 21.261719 54.195312 21.371094 54.636719 C 21.476562 55.074219 21.441406 55.457031 21.273438 55.769531 C 21.015625 56.242188 20.503906 56.472656 20.003906 56.578125 C 20.023438 56.546875 20.042969 56.511719 20.0625 56.476562 C 20.488281 55.695312 20.253906 54.636719 19.40625 53.5 C 18.59375 52.40625 17.296875 51.351562 15.757812 50.535156 C 14.257812 49.738281 12.710938 49.257812 11.386719 49.167969 C 11.894531 49.027344 12.535156 48.996094 13.265625 49.082031 C 14.464844 49.222656 15.839844 49.679688 17.128906 50.367188 Z M 17.132812 50.367188 " fill-opacity="1" fill-rule="nonzero"></path><path fill="#ff9700" d="M 17.132812 50.367188 C 18.617188 51.160156 19.867188 52.171875 20.648438 53.21875 C 21.019531 53.71875 21.261719 54.195312 21.371094 54.636719 C 21.476562 55.074219 21.441406 55.457031 21.273438 55.769531 C 21.015625 56.242188 20.503906 56.472656 20.003906 56.578125 C 20.023438 56.546875 20.042969 56.511719 20.0625 56.476562 C 20.488281 55.695312 20.253906 54.636719 19.40625 53.5 C 18.59375 52.40625 17.296875 51.351562 15.757812 50.535156 C 14.257812 49.738281 12.710938 49.257812 11.386719 49.167969 C 11.894531 49.027344 12.535156 48.996094 13.265625 49.082031 C 14.464844 49.222656 15.839844 49.679688 17.128906 50.367188 Z M 17.132812 50.367188 " fill-opacity="1" fill-rule="nonzero"></path><path fill="#000000" d="M 19.082031 56.882812 C 17.738281 56.882812 16.03125 56.425781 14.339844 55.527344 C 12.824219 54.71875 11.550781 53.683594 10.75 52.613281 C 9.949219 51.535156 9.722656 50.546875 10.109375 49.832031 C 10.910156 48.355469 14.105469 48.511719 17.238281 50.175781 C 18.753906 50.980469 20.027344 52.015625 20.824219 53.089844 C 21.628906 54.167969 21.855469 55.152344 21.46875 55.871094 C 21.097656 56.550781 20.226562 56.882812 19.082031 56.882812 Z M 12.492188 48.851562 C 11.363281 48.851562 10.5 49.179688 10.140625 49.847656 C 9.757812 50.550781 9.984375 51.527344 10.777344 52.589844 C 11.574219 53.660156 12.84375 54.691406 14.355469 55.492188 C 17.46875 57.148438 20.644531 57.3125 21.433594 55.855469 C 21.8125 55.148438 21.585938 54.175781 20.792969 53.109375 C 20 52.042969 18.726562 51.011719 17.21875 50.207031 C 15.53125 49.3125 13.824219 48.851562 12.492188 48.851562 Z M 12.492188 48.851562 " fill-opacity="1" fill-rule="nonzero"></path><path fill="#89c10a" d="M 21.46875 55.816406 C 21.46875 55.816406 19.160156 54.878906 19.496094 53.253906 C 19.695312 52.316406 18.867188 50.832031 18.132812 49.746094 C 17.832031 49.304688 18.308594 48.757812 18.792969 48.976562 C 20.835938 49.90625 23.742188 51.988281 21.46875 55.816406 Z M 21.46875 55.816406 " fill-opacity="1" fill-rule="nonzero"></path><path fill="#7faa07" d="M 18.792969 48.976562 C 18.304688 48.753906 17.832031 49.304688 18.128906 49.746094 C 18.167969 49.800781 18.203125 49.855469 18.242188 49.910156 C 18.3125 49.910156 18.386719 49.929688 18.460938 49.960938 C 20.167969 50.738281 22.476562 52.320312 21.863281 55.054688 C 23.347656 51.707031 20.695312 49.839844 18.792969 48.972656 Z M 18.792969 48.976562 " fill-opacity="1" fill-rule="nonzero"></path><path fill="#000000" d="M 21.46875 55.832031 C 21.46875 55.832031 21.464844 55.832031 21.460938 55.832031 C 21.4375 55.824219 19.140625 54.871094 19.480469 53.25 C 19.675781 52.316406 18.847656 50.835938 18.117188 49.757812 C 17.976562 49.550781 17.992188 49.292969 18.152344 49.101562 C 18.316406 48.914062 18.570312 48.859375 18.800781 48.960938 C 20.050781 49.53125 21.648438 50.542969 22.15625 52.136719 C 22.507812 53.246094 22.28125 54.484375 21.484375 55.828125 C 21.484375 55.832031 21.476562 55.835938 21.46875 55.835938 Z M 18.566406 48.941406 C 18.421875 48.941406 18.28125 49.003906 18.179688 49.125 C 18.027344 49.300781 18.015625 49.539062 18.148438 49.734375 C 18.878906 50.820312 19.714844 52.308594 19.515625 53.253906 C 19.195312 54.78125 21.265625 55.707031 21.460938 55.792969 C 22.246094 54.464844 22.46875 53.238281 22.121094 52.144531 C 21.617188 50.5625 20.027344 49.554688 18.785156 48.992188 C 18.714844 48.957031 18.636719 48.941406 18.566406 48.941406 Z M 18.566406 48.941406 " fill-opacity="1" fill-rule="nonzero"></path><path fill="#89c10a" d="M 21.46875 55.816406 C 21.46875 55.816406 19.335938 54.527344 18.21875 55.765625 C 17.570312 56.476562 15.875 56.699219 14.558594 56.757812 C 14.023438 56.777344 13.855469 57.484375 14.324219 57.738281 C 16.292969 58.820312 19.707031 59.898438 21.46875 55.816406 Z M 21.46875 55.816406 " fill-opacity="1" fill-rule="nonzero"></path><path fill="#000000" d="M 17.636719 58.746094 C 16.417969 58.746094 15.210938 58.246094 14.316406 57.753906 C 14.09375 57.632812 13.988281 57.398438 14.046875 57.15625 C 14.105469 56.910156 14.304688 56.746094 14.554688 56.738281 C 15.867188 56.679688 17.5625 56.460938 18.203125 55.75 C 19.320312 54.519531 21.457031 55.785156 21.480469 55.800781 C 21.488281 55.804688 21.488281 55.816406 21.484375 55.824219 C 20.867188 57.253906 19.992188 58.167969 18.882812 58.546875 C 18.476562 58.683594 18.054688 58.746094 17.636719 58.746094 Z M 19.515625 55.25 C 19.050781 55.25 18.585938 55.382812 18.230469 55.773438 C 17.578125 56.492188 15.875 56.714844 14.558594 56.773438 C 14.320312 56.78125 14.136719 56.9375 14.082031 57.164062 C 14.027344 57.390625 14.128906 57.609375 14.332031 57.722656 C 15.53125 58.378906 17.289062 59.050781 18.871094 58.511719 C 19.96875 58.140625 20.832031 57.234375 21.445312 55.824219 C 21.324219 55.753906 20.417969 55.25 19.515625 55.25 Z M 19.515625 55.25 " fill-opacity="1" fill-rule="nonzero"></path><path fill="#000000" d="M 12.976562 53.191406 C 12.890625 53.191406 12.804688 53.160156 12.738281 53.101562 C 12.675781 53.042969 12.632812 52.964844 12.625 52.878906 C 12.539062 52.878906 12.453125 52.84375 12.390625 52.789062 C 12.324219 52.730469 12.285156 52.652344 12.273438 52.566406 C 12.1875 52.566406 12.105469 52.535156 12.039062 52.476562 C 11.976562 52.417969 11.933594 52.339844 11.925781 52.253906 C 11.839844 52.253906 11.757812 52.222656 11.691406 52.164062 C 11.628906 52.105469 11.585938 52.027344 11.578125 51.945312 C 11.488281 51.945312 11.40625 51.910156 11.34375 51.851562 C 11.269531 51.789062 11.230469 51.703125 11.226562 51.609375 C 11.222656 51.511719 11.253906 51.425781 11.316406 51.351562 C 11.324219 51.34375 11.335938 51.34375 11.34375 51.351562 C 11.351562 51.359375 11.351562 51.371094 11.34375 51.378906 C 11.285156 51.441406 11.257812 51.523438 11.261719 51.605469 C 11.265625 51.691406 11.300781 51.769531 11.367188 51.828125 C 11.425781 51.882812 11.503906 51.910156 11.589844 51.90625 C 11.601562 51.90625 11.609375 51.914062 11.609375 51.925781 C 11.613281 52.007812 11.648438 52.082031 11.710938 52.140625 C 11.773438 52.195312 11.851562 52.222656 11.9375 52.21875 C 11.945312 52.21875 11.953125 52.226562 11.953125 52.238281 C 11.960938 52.320312 11.996094 52.394531 12.058594 52.449219 C 12.117188 52.503906 12.195312 52.535156 12.273438 52.535156 C 12.277344 52.535156 12.28125 52.535156 12.285156 52.535156 C 12.292969 52.535156 12.300781 52.539062 12.300781 52.550781 C 12.308594 52.632812 12.34375 52.707031 12.40625 52.765625 C 12.46875 52.820312 12.546875 52.847656 12.628906 52.84375 C 12.640625 52.84375 12.648438 52.851562 12.648438 52.863281 C 12.652344 52.945312 12.691406 53.019531 12.753906 53.074219 C 12.882812 53.195312 13.085938 53.183594 13.203125 53.054688 C 13.210938 53.046875 13.222656 53.046875 13.230469 53.054688 C 13.238281 53.0625 13.238281 53.070312 13.230469 53.078125 C 13.164062 53.148438 13.078125 53.191406 12.984375 53.195312 C 12.976562 53.195312 12.972656 53.195312 12.964844 53.195312 Z M 12.976562 53.191406 " fill-opacity="1" fill-rule="nonzero"></path><path fill="#000000" d="M 16.277344 54.816406 C 16.222656 54.816406 16.164062 54.800781 16.109375 54.773438 C 16.035156 54.734375 15.976562 54.667969 15.945312 54.585938 C 15.859375 54.605469 15.773438 54.59375 15.695312 54.554688 C 15.621094 54.515625 15.5625 54.449219 15.53125 54.367188 C 15.445312 54.386719 15.359375 54.375 15.28125 54.335938 C 15.203125 54.292969 15.148438 54.226562 15.117188 54.148438 C 15.03125 54.167969 14.941406 54.15625 14.867188 54.113281 C 14.789062 54.074219 14.730469 54.007812 14.699219 53.929688 C 14.617188 53.949219 14.527344 53.9375 14.453125 53.894531 C 14.367188 53.851562 14.304688 53.777344 14.277344 53.6875 C 14.25 53.59375 14.261719 53.5 14.304688 53.417969 C 14.3125 53.410156 14.324219 53.40625 14.332031 53.410156 C 14.339844 53.417969 14.34375 53.425781 14.335938 53.433594 C 14.296875 53.511719 14.289062 53.59375 14.3125 53.675781 C 14.335938 53.757812 14.390625 53.824219 14.46875 53.863281 C 14.542969 53.902344 14.625 53.910156 14.707031 53.890625 C 14.714844 53.886719 14.726562 53.890625 14.726562 53.902344 C 14.753906 53.980469 14.808594 54.046875 14.882812 54.085938 C 14.957031 54.125 15.039062 54.132812 15.121094 54.109375 C 15.128906 54.109375 15.140625 54.113281 15.140625 54.125 C 15.167969 54.203125 15.222656 54.265625 15.292969 54.304688 C 15.367188 54.34375 15.453125 54.355469 15.53125 54.332031 C 15.542969 54.328125 15.550781 54.335938 15.554688 54.34375 C 15.582031 54.421875 15.632812 54.488281 15.707031 54.527344 C 15.78125 54.566406 15.867188 54.574219 15.945312 54.554688 C 15.957031 54.550781 15.964844 54.554688 15.96875 54.566406 C 15.996094 54.644531 16.046875 54.710938 16.121094 54.75 C 16.195312 54.789062 16.285156 54.796875 16.367188 54.773438 C 16.449219 54.75 16.515625 54.695312 16.554688 54.621094 C 16.558594 54.609375 16.570312 54.605469 16.578125 54.613281 C 16.589844 54.617188 16.589844 54.628906 16.585938 54.636719 C 16.539062 54.71875 16.464844 54.78125 16.375 54.808594 C 16.339844 54.816406 16.304688 54.824219 16.273438 54.824219 Z M 16.277344 54.816406 " fill-opacity="1" fill-rule="nonzero"></path><path fill="#000000" d="M 14.511719 50.714844 C 14.511719 50.714844 14.507812 50.714844 14.507812 50.714844 C 14.496094 50.714844 14.488281 50.703125 14.492188 50.695312 C 14.535156 50.523438 14.433594 50.351562 14.261719 50.308594 C 14.179688 50.289062 14.09375 50.300781 14.023438 50.339844 C 14.015625 50.34375 14.003906 50.34375 14 50.335938 C 13.953125 50.265625 13.886719 50.214844 13.804688 50.195312 C 13.722656 50.171875 13.640625 50.183594 13.566406 50.226562 C 13.558594 50.230469 13.546875 50.226562 13.542969 50.21875 C 13.5 50.148438 13.429688 50.097656 13.347656 50.078125 C 13.269531 50.058594 13.183594 50.070312 13.109375 50.109375 C 13.101562 50.117188 13.09375 50.113281 13.085938 50.105469 C 13.042969 50.035156 12.972656 49.984375 12.894531 49.964844 C 12.8125 49.941406 12.726562 49.953125 12.65625 49.996094 C 12.648438 50 12.636719 49.996094 12.628906 49.988281 C 12.585938 49.917969 12.519531 49.867188 12.4375 49.847656 C 12.265625 49.804688 12.09375 49.90625 12.046875 50.078125 C 12.046875 50.085938 12.035156 50.09375 12.027344 50.089844 C 12.015625 50.089844 12.011719 50.078125 12.011719 50.070312 C 12.0625 49.878906 12.253906 49.765625 12.445312 49.8125 C 12.53125 49.835938 12.601562 49.886719 12.652344 49.957031 C 12.726562 49.917969 12.816406 49.90625 12.898438 49.929688 C 12.984375 49.949219 13.058594 50 13.105469 50.070312 C 13.183594 50.03125 13.269531 50.019531 13.355469 50.042969 C 13.441406 50.066406 13.511719 50.113281 13.558594 50.183594 C 13.636719 50.144531 13.722656 50.136719 13.808594 50.15625 C 13.894531 50.179688 13.964844 50.230469 14.015625 50.300781 C 14.089844 50.261719 14.179688 50.25 14.265625 50.269531 C 14.453125 50.320312 14.570312 50.511719 14.519531 50.699219 C 14.519531 50.707031 14.511719 50.714844 14.503906 50.714844 Z M 14.511719 50.714844 " fill-opacity="1" fill-rule="nonzero"></path><path fill="#000000" d="M 17.671875 52.621094 C 17.671875 52.621094 17.664062 52.621094 17.664062 52.617188 C 17.652344 52.613281 17.652344 52.601562 17.65625 52.59375 C 17.695312 52.519531 17.707031 52.433594 17.679688 52.351562 C 17.65625 52.269531 17.601562 52.203125 17.527344 52.164062 C 17.453125 52.125 17.367188 52.117188 17.289062 52.140625 C 17.277344 52.140625 17.269531 52.136719 17.265625 52.125 C 17.242188 52.046875 17.1875 51.984375 17.113281 51.945312 C 17.039062 51.902344 16.957031 51.894531 16.875 51.917969 C 16.863281 51.921875 16.855469 51.914062 16.851562 51.90625 C 16.828125 51.828125 16.773438 51.761719 16.699219 51.722656 C 16.625 51.683594 16.542969 51.671875 16.460938 51.695312 C 16.453125 51.699219 16.441406 51.695312 16.4375 51.683594 C 16.414062 51.605469 16.359375 51.539062 16.285156 51.5 C 16.210938 51.460938 16.128906 51.453125 16.046875 51.476562 C 16.039062 51.476562 16.027344 51.472656 16.027344 51.464844 C 16 51.382812 15.945312 51.320312 15.871094 51.28125 C 15.796875 51.238281 15.710938 51.230469 15.628906 51.253906 C 15.546875 51.28125 15.480469 51.335938 15.441406 51.410156 C 15.433594 51.417969 15.421875 51.421875 15.414062 51.414062 C 15.40625 51.410156 15.402344 51.398438 15.410156 51.390625 C 15.453125 51.308594 15.527344 51.246094 15.621094 51.21875 C 15.710938 51.191406 15.808594 51.203125 15.890625 51.246094 C 15.96875 51.289062 16.027344 51.355469 16.054688 51.433594 C 16.140625 51.414062 16.226562 51.425781 16.304688 51.46875 C 16.382812 51.507812 16.441406 51.574219 16.472656 51.65625 C 16.554688 51.636719 16.644531 51.644531 16.71875 51.6875 C 16.796875 51.726562 16.855469 51.792969 16.886719 51.875 C 16.96875 51.855469 17.058594 51.867188 17.136719 51.90625 C 17.210938 51.949219 17.269531 52.015625 17.300781 52.09375 C 17.386719 52.074219 17.472656 52.085938 17.550781 52.125 C 17.632812 52.171875 17.695312 52.246094 17.722656 52.335938 C 17.75 52.425781 17.738281 52.519531 17.695312 52.605469 C 17.691406 52.609375 17.683594 52.613281 17.679688 52.613281 Z M 17.671875 52.621094 " fill-opacity="1" fill-rule="nonzero"></path><g clip-path="url(#71ec3a303e)"><path fill="#fddaa9" d="M 24.652344 72.488281 L 11.789062 72.488281 L 13.035156 66.148438 C 13.472656 63.917969 15.304688 62.25 17.53125 61.960938 C 17.757812 61.929688 17.988281 61.914062 18.222656 61.914062 C 18.457031 61.914062 18.6875 61.929688 18.914062 61.960938 C 19.914062 62.089844 20.832031 62.5 21.582031 63.109375 C 22.503906 63.863281 23.167969 64.921875 23.410156 66.148438 L 24.65625 72.488281 Z M 24.652344 72.488281 " fill-opacity="1" fill-rule="nonzero"></path></g><g clip-path="url(#6bae881912)"><path fill="#f7e1c6" d="M 17.496094 62.246094 C 15.59375 62.851562 14.136719 64.441406 13.742188 66.441406 L 12.605469 72.210938 L 12.128906 72.210938 L 13.308594 66.203125 C 13.714844 64.128906 15.394531 62.546875 17.496094 62.242188 Z M 17.496094 62.246094 " fill-opacity="1" fill-rule="nonzero"></path><path fill="#f7e1c6" d="M 17.496094 62.246094 C 15.59375 62.851562 14.136719 64.441406 13.742188 66.441406 L 12.605469 72.210938 L 12.128906 72.210938 L 13.308594 66.203125 C 13.714844 64.128906 15.394531 62.546875 17.496094 62.242188 Z M 17.496094 62.246094 " fill-opacity="1" fill-rule="nonzero"></path></g><g clip-path="url(#776d43a748)"><path fill="#edbd83" d="M 23.40625 66.148438 C 23.167969 64.921875 22.5 63.863281 21.582031 63.109375 C 21.347656 62.921875 21.097656 62.753906 20.835938 62.605469 C 21.453125 63.289062 21.898438 64.144531 22.085938 65.097656 L 22.824219 68.859375 C 23.089844 70.195312 22.054688 71.4375 20.679688 71.4375 L 11.996094 71.4375 L 11.789062 72.488281 L 24.652344 72.488281 Z M 23.40625 66.148438 " fill-opacity="1" fill-rule="nonzero"></path></g><g clip-path="url(#06deddbc67)"><path fill="#000000" d="M 24.652344 72.542969 L 11.789062 72.542969 C 11.773438 72.542969 11.757812 72.535156 11.75 72.523438 C 11.738281 72.511719 11.734375 72.496094 11.738281 72.480469 L 12.984375 66.140625 C 13.421875 63.90625 15.25 62.203125 17.523438 61.910156 C 17.980469 61.847656 18.460938 61.847656 18.917969 61.910156 C 19.910156 62.039062 20.839844 62.4375 21.613281 63.070312 C 22.566406 63.847656 23.222656 64.9375 23.457031 66.140625 L 24.703125 72.480469 C 24.707031 72.492188 24.703125 72.511719 24.695312 72.519531 C 24.683594 72.535156 24.667969 72.539062 24.652344 72.539062 Z M 11.851562 72.4375 L 24.589844 72.4375 L 23.355469 66.160156 C 23.125 64.980469 22.484375 63.914062 21.546875 63.148438 C 20.789062 62.53125 19.875 62.136719 18.90625 62.011719 C 18.457031 61.953125 17.984375 61.953125 17.535156 62.011719 C 15.304688 62.300781 13.515625 63.96875 13.082031 66.160156 Z M 11.851562 72.4375 " fill-opacity="1" fill-rule="nonzero"></path></g><path fill="#a4764b" d="M 18.910156 59.222656 L 18.910156 61.960938 C 18.6875 61.929688 18.453125 61.914062 18.21875 61.914062 C 17.988281 61.914062 17.757812 61.929688 17.527344 61.960938 L 17.527344 59.222656 Z M 18.910156 59.222656 " fill-opacity="1" fill-rule="nonzero"></path><path fill="#000000" d="M 18.910156 62.011719 C 18.910156 62.011719 18.90625 62.011719 18.90625 62.011719 C 18.457031 61.953125 17.984375 61.953125 17.539062 62.011719 C 17.523438 62.011719 17.507812 62.007812 17.496094 62 C 17.484375 61.988281 17.476562 61.976562 17.476562 61.960938 L 17.476562 59.222656 C 17.476562 59.195312 17.5 59.171875 17.53125 59.171875 L 18.910156 59.171875 C 18.941406 59.171875 18.964844 59.195312 18.964844 59.222656 L 18.964844 61.960938 C 18.964844 61.976562 18.957031 61.988281 18.945312 62 C 18.9375 62.007812 18.925781 62.011719 18.910156 62.011719 Z M 17.582031 59.277344 L 17.582031 61.902344 C 18 61.851562 18.441406 61.851562 18.859375 61.902344 L 18.859375 59.277344 Z M 17.582031 59.277344 " fill-opacity="1" fill-rule="nonzero"></path><path fill="#a4764b" d="M 24.105469 55.871094 L 24.105469 56.734375 C 24.105469 58.109375 22.980469 59.222656 21.59375 59.222656 L 14.851562 59.222656 C 13.460938 59.222656 12.335938 58.109375 12.335938 56.734375 L 12.335938 55.871094 Z M 24.105469 55.871094 " fill-opacity="1" fill-rule="nonzero"></path><path fill="#af825d" d="M 12.886719 56.496094 L 12.886719 57.355469 C 12.886719 57.671875 12.945312 57.976562 13.050781 58.265625 C 12.683594 57.847656 12.480469 57.308594 12.480469 56.734375 L 12.480469 56.011719 L 23.96875 56.011719 L 23.96875 56.355469 L 13.027344 56.355469 C 12.949219 56.355469 12.886719 56.417969 12.886719 56.496094 Z M 12.886719 56.496094 " fill-opacity="1" fill-rule="nonzero"></path><path fill="#af825d" d="M 12.886719 56.496094 L 12.886719 57.355469 C 12.886719 57.671875 12.945312 57.976562 13.050781 58.265625 C 12.683594 57.847656 12.480469 57.308594 12.480469 56.734375 L 12.480469 56.011719 L 23.96875 56.011719 L 23.96875 56.355469 L 13.027344 56.355469 C 12.949219 56.355469 12.886719 56.417969 12.886719 56.496094 Z M 12.886719 56.496094 " fill-opacity="1" fill-rule="nonzero"></path><path fill="#996e4a" d="M 23.289062 55.871094 L 23.289062 56.089844 C 23.289062 57.464844 22.164062 58.582031 20.777344 58.582031 L 14.035156 58.582031 C 13.628906 58.582031 13.246094 58.484375 12.90625 58.3125 C 13.367188 58.871094 14.066406 59.222656 14.851562 59.222656 L 21.59375 59.222656 C 22.980469 59.222656 24.105469 58.109375 24.105469 56.734375 L 24.105469 55.871094 Z M 23.289062 55.871094 " fill-opacity="1" fill-rule="nonzero"></path><path fill="#000000" d="M 21.59375 59.277344 L 14.851562 59.277344 C 13.4375 59.277344 12.285156 58.136719 12.285156 56.734375 L 12.285156 55.871094 C 12.285156 55.84375 12.308594 55.820312 12.335938 55.820312 L 24.105469 55.820312 C 24.136719 55.820312 24.15625 55.84375 24.15625 55.871094 L 24.15625 56.734375 C 24.15625 58.136719 23.007812 59.277344 21.59375 59.277344 Z M 12.386719 55.925781 L 12.386719 56.734375 C 12.386719 58.078125 13.492188 59.171875 14.851562 59.171875 L 21.59375 59.171875 C 22.949219 59.171875 24.054688 58.078125 24.054688 56.734375 L 24.054688 55.925781 Z M 12.386719 55.925781 " fill-opacity="1" fill-rule="nonzero"></path><path fill="#a4764b" d="M 21.332031 67.253906 C 21.332031 67.664062 21.253906 68.058594 21.097656 68.433594 C 20.9375 68.8125 20.714844 69.144531 20.421875 69.433594 C 20.128906 69.726562 19.792969 69.949219 19.410156 70.105469 C 19.03125 70.261719 18.632812 70.339844 18.21875 70.339844 C 17.808594 70.339844 17.410156 70.261719 17.027344 70.105469 C 16.648438 69.949219 16.3125 69.726562 16.019531 69.433594 C 15.726562 69.144531 15.503906 68.8125 15.34375 68.433594 C 15.1875 68.058594 15.105469 67.664062 15.105469 67.253906 C 15.105469 66.84375 15.1875 66.453125 15.34375 66.074219 C 15.503906 65.695312 15.726562 65.363281 16.019531 65.074219 C 16.3125 64.785156 16.648438 64.5625 17.027344 64.40625 C 17.410156 64.25 17.808594 64.171875 18.21875 64.171875 C 18.632812 64.171875 19.03125 64.25 19.410156 64.40625 C 19.792969 64.5625 20.128906 64.785156 20.421875 65.074219 C 20.714844 65.363281 20.9375 65.695312 21.097656 66.074219 C 21.253906 66.453125 21.332031 66.84375 21.332031 67.253906 Z M 21.332031 67.253906 " fill-opacity="1" fill-rule="nonzero"></path><path fill="#000000" d="M 18.21875 70.390625 C 16.476562 70.390625 15.054688 68.984375 15.054688 67.253906 C 15.054688 65.523438 16.476562 64.117188 18.21875 64.117188 C 19.964844 64.117188 21.386719 65.523438 21.386719 67.253906 C 21.386719 68.984375 19.964844 70.390625 18.21875 70.390625 Z M 18.21875 64.222656 C 16.53125 64.222656 15.160156 65.582031 15.160156 67.253906 C 15.160156 68.925781 16.53125 70.289062 18.21875 70.289062 C 19.910156 70.289062 21.28125 68.925781 21.28125 67.253906 C 21.28125 65.582031 19.910156 64.222656 18.21875 64.222656 Z M 18.21875 64.222656 " fill-opacity="1" fill-rule="nonzero"></path><path fill="#fddaa9" d="M 18.777344 67.253906 C 18.777344 67.40625 18.722656 67.535156 18.613281 67.644531 C 18.503906 67.75 18.375 67.804688 18.21875 67.804688 C 18.066406 67.804688 17.9375 67.75 17.828125 67.644531 C 17.71875 67.535156 17.664062 67.40625 17.664062 67.253906 C 17.664062 67.101562 17.71875 66.972656 17.828125 66.863281 C 17.9375 66.757812 18.066406 66.703125 18.21875 66.703125 C 18.375 66.703125 18.503906 66.757812 18.613281 66.863281 C 18.722656 66.972656 18.777344 67.101562 18.777344 67.253906 Z M 18.777344 67.253906 " fill-opacity="1" fill-rule="nonzero"></path><path fill="#fddaa9" d="M 18.566406 66.289062 C 18.566406 66.554688 18.53125 66.78125 18.464844 66.972656 C 18.398438 67.160156 18.316406 67.253906 18.21875 67.253906 C 18.125 67.253906 18.042969 67.160156 17.976562 66.972656 C 17.910156 66.78125 17.875 66.554688 17.875 66.289062 C 17.875 66.019531 17.910156 65.792969 17.976562 65.601562 C 18.042969 65.414062 18.125 65.320312 18.21875 65.320312 C 18.316406 65.320312 18.398438 65.414062 18.464844 65.601562 C 18.53125 65.792969 18.566406 66.019531 18.566406 66.289062 Z M 18.566406 66.289062 " fill-opacity="1" fill-rule="nonzero"></path><path fill="#000000" d="M 18.21875 64.929688 C 18.191406 64.929688 18.167969 64.90625 18.167969 64.878906 L 18.167969 64.171875 C 18.167969 64.144531 18.191406 64.121094 18.21875 64.121094 C 18.25 64.121094 18.273438 64.144531 18.273438 64.171875 L 18.273438 64.878906 C 18.273438 64.90625 18.25 64.929688 18.21875 64.929688 Z M 18.21875 64.929688 " fill-opacity="1" fill-rule="nonzero"></path><path fill="#000000" d="M 15.820312 67.304688 L 15.109375 67.304688 C 15.078125 67.304688 15.054688 67.28125 15.054688 67.253906 C 15.054688 67.226562 15.078125 67.203125 15.109375 67.203125 L 15.820312 67.203125 C 15.851562 67.203125 15.875 67.226562 15.875 67.253906 C 15.875 67.28125 15.851562 67.304688 15.820312 67.304688 Z M 15.820312 67.304688 " fill-opacity="1" fill-rule="nonzero"></path><path fill="#000000" d="M 18.21875 70.390625 C 18.191406 70.390625 18.167969 70.367188 18.167969 70.339844 L 18.167969 69.632812 C 18.167969 69.605469 18.191406 69.582031 18.21875 69.582031 C 18.25 69.582031 18.273438 69.605469 18.273438 69.632812 L 18.273438 70.339844 C 18.273438 70.367188 18.25 70.390625 18.21875 70.390625 Z M 18.21875 70.390625 " fill-opacity="1" fill-rule="nonzero"></path><path fill="#000000" d="M 21.332031 67.304688 L 20.621094 67.304688 C 20.589844 67.304688 20.570312 67.28125 20.570312 67.253906 C 20.570312 67.226562 20.589844 67.203125 20.621094 67.203125 L 21.332031 67.203125 C 21.363281 67.203125 21.386719 67.226562 21.386719 67.253906 C 21.386719 67.28125 21.363281 67.304688 21.332031 67.304688 Z M 21.332031 67.304688 " fill-opacity="1" fill-rule="nonzero"></path></svg>