<svg xmlns="http://www.w3.org/2000/svg" viewBox="0 0 32 32" role="img" aria-label="WhatsApp">
  <circle cx="16" cy="16" r="15" fill="#25D366" />
  <path
    fill="#FFFFFF"
    d="M22.3 19.4c-.3-.2-1.8-.9-2.1-1-.3-.1-.5-.2-.7.2-.2.3-.8 1-1 1.2-.2.2-.3.2-.6.1-.3-.2-1.3-.5-2.5-1.6-.9-.8-1.5-1.8-1.7-2.1-.2-.3 0-.5.1-.6.1-.1.3-.3.5-.5.2-.2.2-.3.3-.5.1-.2.1-.4 0-.6-.1-.2-.7-1.7-1-2.3-.2-.6-.5-.5-.7-.5h-.6c-.2 0-.5.1-.8.4-.3.3-1.1 1.1-1.1 2.5 0 1.5 1.1 2.9 1.2 3.1.2.2 2.1 3.2 5 4.5.7.3 1.3.5 1.8.7.7.2 1.3.2 1.9.1.6-.1 1.8-.7 2.1-1.5.3-.7.3-1.4.2-1.5-.1-.1-.3-.2-.6-.4z"
  />
  <path
    fill="#FFFFFF"
    d="M16 6.2c-5.4 0-9.8 4.4-9.8 9.8 0 1.7.4 3.3 1.2 4.7L6.2 25l4.4-1.1c1.5.8 3.1 1.2 4.8 1.2 5.4 0 9.8-4.4 9.8-9.8S21.4 6.2 16 6.2zm0 17c-1.5 0-2.9-.4-4.2-1.1l-.3-.2-2.6.6.6-2.5-.2-.3c-.8-1.2-1.2-2.7-1.2-4.2 0-4.4 3.5-7.9 7.9-7.9s7.9 3.5 7.9 7.9-3.5 7.7-7.9 7.7z"
  />
</svg>
